G04*
G04 #@! TF.GenerationSoftware,Altium Limited,Altium Designer,25.2.1 (25)*
G04*
G04 Layer_Color=16711935*
%FSLAX44Y44*%
%MOMM*%
G71*
G04*
G04 #@! TF.SameCoordinates,1C064638-B53A-42AB-B659-0CA3A7FDC49E*
G04*
G04*
G04 #@! TF.FilePolarity,Positive*
G04*
G01*
G75*
%ADD39C,0.1500*%
D39*
X1337355Y1333414D02*
X1327359D01*
X1324859Y1330915D01*
Y1325916D01*
X1327359Y1323417D01*
X1337355D01*
X1339854Y1325916D01*
Y1330915D01*
X1334856Y1328416D02*
X1339854Y1333414D01*
Y1330915D02*
X1337355Y1333414D01*
X1339854Y1345910D02*
X1324859D01*
X1332357Y1338412D01*
Y1348409D01*
X1336085Y1443904D02*
X1326089D01*
X1323589Y1441405D01*
Y1436406D01*
X1326089Y1433907D01*
X1336085D01*
X1338584Y1436406D01*
Y1441405D01*
X1333586Y1438905D02*
X1338584Y1443904D01*
Y1441405D02*
X1336085Y1443904D01*
X1326089Y1448902D02*
X1323589Y1451401D01*
Y1456400D01*
X1326089Y1458899D01*
X1328588D01*
X1331087Y1456400D01*
Y1453901D01*
Y1456400D01*
X1333586Y1458899D01*
X1336085D01*
X1338584Y1456400D01*
Y1451401D01*
X1336085Y1448902D01*
Y1553124D02*
X1326089D01*
X1323589Y1550625D01*
Y1545626D01*
X1326089Y1543127D01*
X1336085D01*
X1338584Y1545626D01*
Y1550625D01*
X1333586Y1548125D02*
X1338584Y1553124D01*
Y1550625D02*
X1336085Y1553124D01*
X1338584Y1568119D02*
Y1558122D01*
X1328588Y1568119D01*
X1326089D01*
X1323589Y1565620D01*
Y1560621D01*
X1326089Y1558122D01*
X1336085Y1663573D02*
X1326089D01*
X1323589Y1661074D01*
Y1656075D01*
X1326089Y1653576D01*
X1336085D01*
X1338584Y1656075D01*
Y1661074D01*
X1333586Y1658575D02*
X1338584Y1663573D01*
Y1661074D02*
X1336085Y1663573D01*
X1338584Y1668571D02*
Y1673570D01*
Y1671071D01*
X1323589D01*
X1326089Y1668571D01*
M02*
