G04*
G04 #@! TF.GenerationSoftware,Altium Limited,Altium Designer,25.2.1 (25)*
G04*
G04 Layer_Color=65535*
%FSLAX44Y44*%
%MOMM*%
G71*
G04*
G04 #@! TF.SameCoordinates,1C064638-B53A-42AB-B659-0CA3A7FDC49E*
G04*
G04*
G04 #@! TF.FilePolarity,Positive*
G04*
G01*
G75*
%ADD10C,0.0100*%
%ADD11C,0.2500*%
%ADD12C,0.2000*%
%ADD13C,0.3000*%
%ADD14C,0.2540*%
D10*
X1840000Y1910000D02*
G03*
X1840000Y1910000I-10000J0D01*
G01*
Y1510665D02*
G03*
X1840000Y1510665I-10000J0D01*
G01*
Y1110000D02*
G03*
X1840000Y1110000I-10000J0D01*
G01*
X1470500Y1060000D02*
G03*
X1470500Y1060000I-10000J0D01*
G01*
X1140000D02*
G03*
X1140000Y1060000I-10000J0D01*
G01*
X1800000D02*
G03*
X1800000Y1060000I-10000J0D01*
G01*
X1100000Y1510665D02*
G03*
X1100000Y1510665I-10000J0D01*
G01*
Y1910000D02*
G03*
X1100000Y1910000I-10000J0D01*
G01*
Y1110000D02*
G03*
X1100000Y1110000I-10000J0D01*
G01*
X1800000Y1960000D02*
G03*
X1800000Y1960000I-10000J0D01*
G01*
X1140000D02*
G03*
X1140000Y1960000I-10000J0D01*
G01*
X1470500D02*
G03*
X1470500Y1960000I-10000J0D01*
G01*
X1830000Y1500665D02*
Y1520665D01*
Y1900000D02*
Y1920000D01*
X1820000Y1910000D02*
X1840000D01*
X1820000Y1510665D02*
X1840000D01*
X1830000Y1100000D02*
Y1120000D01*
X1820000Y1110000D02*
X1840000D01*
X1450500Y1061250D02*
X1470500D01*
X1460500Y1051250D02*
Y1071250D01*
X1130000Y1050000D02*
Y1070000D01*
X1120000Y1060000D02*
X1140000D01*
X1790000Y1050000D02*
Y1070000D01*
X1780000Y1060000D02*
X1800000D01*
X1090000Y1900000D02*
Y1920000D01*
Y1500665D02*
Y1520665D01*
X1080000Y1910000D02*
X1100000D01*
X1080000Y1510665D02*
X1100000D01*
X1090000Y1100000D02*
Y1120000D01*
X1080000Y1110000D02*
X1100000D01*
X1790000Y1950000D02*
Y1970000D01*
X1780000Y1960000D02*
X1800000D01*
X1450500Y1960080D02*
X1470500D01*
X1130000Y1950000D02*
Y1970000D01*
X1460500Y1950080D02*
Y1970080D01*
X1120000Y1960000D02*
X1140000D01*
D11*
X1558620Y1628140D02*
G03*
X1558620Y1628140I-1250J0D01*
G01*
X1376280Y1285140D02*
G03*
X1376280Y1285140I-1250J0D01*
G01*
X1375010Y1395630D02*
G03*
X1375010Y1395630I-1250J0D01*
G01*
Y1504850D02*
G03*
X1375010Y1504850I-1250J0D01*
G01*
Y1612800D02*
G03*
X1375010Y1612800I-1250J0D01*
G01*
D12*
X1460500Y1221460D02*
X1539000D01*
Y1122960D02*
Y1221460D01*
X1427250Y1122960D02*
X1539000D01*
X1427250D02*
Y1172210D01*
X1244320Y1478520D02*
Y1557020D01*
X1145820Y1478520D02*
X1244320D01*
X1145820D02*
Y1590270D01*
X1195070D01*
X1244320Y1580120D02*
Y1658620D01*
X1145820Y1580120D02*
X1244320D01*
X1145820D02*
Y1691870D01*
X1195070D01*
X1667750Y1743990D02*
X1746250D01*
X1667750D02*
Y1842490D01*
X1779500D01*
Y1793240D02*
Y1842490D01*
X1522340Y1615440D02*
Y1691640D01*
X1504840D02*
X1522340D01*
X1504840Y1615440D02*
Y1691640D01*
Y1615440D02*
X1522340D01*
X1513840Y1691640D02*
Y1706880D01*
Y1600200D02*
Y1615440D01*
X1532010D02*
Y1691640D01*
Y1615440D02*
X1549510D01*
Y1691640D01*
X1532010D02*
X1549510D01*
X1540510Y1600200D02*
Y1615440D01*
Y1691640D02*
Y1706880D01*
X1749760Y1380940D02*
X1775760D01*
X1749760Y1341940D02*
Y1380940D01*
X1775760Y1341940D02*
Y1380940D01*
X1749760Y1341940D02*
X1775760D01*
X1588770Y1716520D02*
X1729220D01*
Y1689620D02*
Y1716520D01*
X1575320Y1689620D02*
X1729220D01*
X1575320D02*
Y1703070D01*
X1563370Y1215390D02*
Y1666240D01*
Y1215390D02*
X1741170D01*
Y1666240D01*
X1563370D02*
X1741170D01*
X1619250Y1492640D02*
X1695450D01*
Y1510140D01*
X1619250D02*
X1695450D01*
X1619250Y1492640D02*
Y1510140D01*
X1695450Y1501140D02*
X1710690D01*
X1604010D02*
X1619250D01*
X1617980Y1518040D02*
X1694180D01*
Y1535540D01*
X1617980D02*
X1694180D01*
X1617980Y1518040D02*
Y1535540D01*
X1694180Y1526540D02*
X1709420D01*
X1602740D02*
X1617980D01*
X1688220Y1361440D02*
Y1437640D01*
Y1361440D02*
X1705720D01*
Y1437640D01*
X1688220D02*
X1705720D01*
X1696720Y1346200D02*
Y1361440D01*
Y1437640D02*
Y1452880D01*
X1358900Y1221460D02*
X1437400D01*
Y1122960D02*
Y1221460D01*
X1325650Y1122960D02*
X1437400D01*
X1325650D02*
Y1172210D01*
X1459230Y1289440D02*
X1535430D01*
Y1306940D01*
X1459230D02*
X1535430D01*
X1459230Y1289440D02*
Y1306940D01*
X1535430Y1297940D02*
X1550670D01*
X1443990D02*
X1459230D01*
Y1314840D02*
X1535430D01*
Y1332340D01*
X1459230D02*
X1535430D01*
X1459230Y1314840D02*
Y1332340D01*
X1535430Y1323340D02*
X1550670D01*
X1443990D02*
X1459230D01*
Y1340240D02*
X1535430D01*
Y1357740D01*
X1459230D02*
X1535430D01*
X1459230Y1340240D02*
Y1357740D01*
X1535430Y1348740D02*
X1550670D01*
X1443990D02*
X1459230D01*
Y1365640D02*
X1535430D01*
Y1383140D01*
X1459230D02*
X1535430D01*
X1459230Y1365640D02*
Y1383140D01*
X1535430Y1374140D02*
X1550670D01*
X1443990D02*
X1459230D01*
Y1391040D02*
X1535430D01*
Y1408540D01*
X1459230D02*
X1535430D01*
X1459230Y1391040D02*
Y1408540D01*
X1535430Y1399540D02*
X1550670D01*
X1443990D02*
X1459230D01*
Y1416440D02*
X1535430D01*
Y1433940D01*
X1459230D02*
X1535430D01*
X1459230Y1416440D02*
Y1433940D01*
X1535430Y1424940D02*
X1550670D01*
X1443990D02*
X1459230D01*
Y1441840D02*
X1535430D01*
Y1459340D01*
X1459230D02*
X1535430D01*
X1459230Y1441840D02*
Y1459340D01*
X1535430Y1450340D02*
X1550670D01*
X1443990D02*
X1459230D01*
Y1467240D02*
X1535430D01*
Y1484740D01*
X1459230D02*
X1535430D01*
X1459230Y1467240D02*
Y1484740D01*
X1535430Y1475740D02*
X1550670D01*
X1443990D02*
X1459230D01*
X1300730Y1286740D02*
Y1385840D01*
Y1286740D02*
X1363730D01*
X1300730Y1385840D02*
X1363730D01*
Y1286740D02*
Y1385840D01*
X1299460Y1397230D02*
Y1496330D01*
Y1397230D02*
X1362460D01*
X1299460Y1496330D02*
X1362460D01*
Y1397230D02*
Y1496330D01*
X1299460Y1506450D02*
Y1605550D01*
Y1506450D02*
X1362460D01*
X1299460Y1605550D02*
X1362460D01*
Y1506450D02*
Y1605550D01*
X1299460Y1614400D02*
Y1713500D01*
Y1614400D02*
X1362460D01*
X1299460Y1713500D02*
X1362460D01*
Y1614400D02*
Y1713500D01*
X1244320Y1275320D02*
Y1353820D01*
X1145820Y1275320D02*
X1244320D01*
X1145820D02*
Y1387070D01*
X1195070D01*
X1244320Y1376920D02*
Y1455420D01*
X1145820Y1376920D02*
X1244320D01*
X1145820D02*
Y1488670D01*
X1195070D01*
X1244320Y1681720D02*
Y1760220D01*
X1145820Y1681720D02*
X1244320D01*
X1145820D02*
Y1793470D01*
X1195070D01*
D13*
X1261064Y1763641D02*
Y1770305D01*
Y1766973D01*
X1244402D01*
X1241070Y1770305D01*
Y1773638D01*
X1244402Y1776970D01*
X1261064Y1756976D02*
Y1743647D01*
X1257731D01*
X1244402Y1756976D01*
X1241070D01*
X1749671Y1727247D02*
X1756335D01*
X1753003D01*
Y1743908D01*
X1756335Y1747240D01*
X1759668D01*
X1763000Y1743908D01*
X1743006Y1730579D02*
X1739674Y1727247D01*
X1733010D01*
X1729677Y1730579D01*
Y1733911D01*
X1733010Y1737243D01*
X1736342D01*
X1733010D01*
X1729677Y1740576D01*
Y1743908D01*
X1733010Y1747240D01*
X1739674D01*
X1743006Y1743908D01*
X1261064Y1560441D02*
Y1567106D01*
Y1563773D01*
X1244402D01*
X1241070Y1567106D01*
Y1570438D01*
X1244402Y1573770D01*
X1261064Y1540447D02*
X1257731Y1547112D01*
X1251067Y1553776D01*
X1244402D01*
X1241070Y1550444D01*
Y1543780D01*
X1244402Y1540447D01*
X1247735D01*
X1251067Y1543780D01*
Y1553776D01*
X1355479Y1238204D02*
X1348815D01*
X1352147D01*
Y1221542D01*
X1348815Y1218210D01*
X1345482D01*
X1342150Y1221542D01*
X1375473Y1238204D02*
X1362144D01*
Y1228207D01*
X1368808Y1231539D01*
X1372140D01*
X1375473Y1228207D01*
Y1221542D01*
X1372140Y1218210D01*
X1365476D01*
X1362144Y1221542D01*
X1261064Y1357241D02*
Y1363905D01*
Y1360573D01*
X1244402D01*
X1241070Y1363905D01*
Y1367238D01*
X1244402Y1370570D01*
Y1350576D02*
X1241070Y1347244D01*
Y1340580D01*
X1244402Y1337247D01*
X1257731D01*
X1261064Y1340580D01*
Y1347244D01*
X1257731Y1350576D01*
X1254399D01*
X1251067Y1347244D01*
Y1337247D01*
X1457079Y1238204D02*
X1450414D01*
X1453747D01*
Y1221542D01*
X1450414Y1218210D01*
X1447082D01*
X1443750Y1221542D01*
X1473740Y1218210D02*
Y1238204D01*
X1463744Y1228207D01*
X1477073D01*
X1261064Y1662041D02*
Y1668705D01*
Y1665373D01*
X1244402D01*
X1241070Y1668705D01*
Y1672038D01*
X1244402Y1675370D01*
X1241070Y1642047D02*
Y1655376D01*
X1254399Y1642047D01*
X1257731D01*
X1261064Y1645380D01*
Y1652044D01*
X1257731Y1655376D01*
D14*
X1532255Y1735201D02*
Y1750436D01*
X1539872D01*
X1542412Y1747897D01*
Y1742818D01*
X1539872Y1740279D01*
X1532255D01*
X1537333D02*
X1542412Y1735201D01*
X1547490D02*
X1552568D01*
X1550029D01*
Y1750436D01*
X1547490Y1747897D01*
X1570343Y1750436D02*
X1565264Y1747897D01*
X1560186Y1742818D01*
Y1737740D01*
X1562725Y1735201D01*
X1567803D01*
X1570343Y1737740D01*
Y1740279D01*
X1567803Y1742818D01*
X1560186D01*
X1522095Y1571879D02*
Y1556644D01*
X1514478D01*
X1511938Y1559183D01*
Y1564261D01*
X1514478Y1566801D01*
X1522095D01*
X1517017D02*
X1511938Y1571879D01*
X1506860D02*
X1501782D01*
X1504321D01*
Y1556644D01*
X1506860Y1559183D01*
X1484007Y1556644D02*
X1494164D01*
Y1564261D01*
X1489086Y1561722D01*
X1486546D01*
X1484007Y1564261D01*
Y1569340D01*
X1486546Y1571879D01*
X1491625D01*
X1494164Y1569340D01*
X1415669Y1289685D02*
X1400434D01*
Y1297303D01*
X1402973Y1299842D01*
X1408051D01*
X1410591Y1297303D01*
Y1289685D01*
Y1294763D02*
X1415669Y1299842D01*
Y1304920D02*
Y1309998D01*
Y1307459D01*
X1400434D01*
X1402973Y1304920D01*
X1415669Y1325233D02*
X1400434D01*
X1408051Y1317616D01*
Y1327773D01*
X1415669Y1315085D02*
X1400434D01*
Y1322702D01*
X1402973Y1325242D01*
X1408051D01*
X1410591Y1322702D01*
Y1315085D01*
Y1320163D02*
X1415669Y1325242D01*
Y1330320D02*
Y1335398D01*
Y1332859D01*
X1400434D01*
X1402973Y1330320D01*
Y1343016D02*
X1400434Y1345555D01*
Y1350634D01*
X1402973Y1353173D01*
X1405512D01*
X1408051Y1350634D01*
Y1348094D01*
Y1350634D01*
X1410591Y1353173D01*
X1413130D01*
X1415669Y1350634D01*
Y1345555D01*
X1413130Y1343016D01*
X1415669Y1340485D02*
X1400434D01*
Y1348103D01*
X1402973Y1350642D01*
X1408051D01*
X1410591Y1348103D01*
Y1340485D01*
Y1345563D02*
X1415669Y1350642D01*
Y1355720D02*
Y1360798D01*
Y1358259D01*
X1400434D01*
X1402973Y1355720D01*
X1415669Y1378573D02*
Y1368416D01*
X1405512Y1378573D01*
X1402973D01*
X1400434Y1376033D01*
Y1370955D01*
X1402973Y1368416D01*
X1415669Y1365885D02*
X1400434D01*
Y1373503D01*
X1402973Y1376042D01*
X1408051D01*
X1410591Y1373503D01*
Y1365885D01*
Y1370963D02*
X1415669Y1376042D01*
Y1381120D02*
Y1386198D01*
Y1383659D01*
X1400434D01*
X1402973Y1381120D01*
X1415669Y1393816D02*
Y1398894D01*
Y1396355D01*
X1400434D01*
X1402973Y1393816D01*
X1415669Y1391285D02*
X1400434D01*
Y1398902D01*
X1402973Y1401442D01*
X1408051D01*
X1410591Y1398902D01*
Y1391285D01*
Y1396363D02*
X1415669Y1401442D01*
Y1406520D02*
Y1411598D01*
Y1409059D01*
X1400434D01*
X1402973Y1406520D01*
Y1419216D02*
X1400434Y1421755D01*
Y1426833D01*
X1402973Y1429373D01*
X1413130D01*
X1415669Y1426833D01*
Y1421755D01*
X1413130Y1419216D01*
X1402973D01*
X1415669Y1416685D02*
X1400434D01*
Y1424303D01*
X1402973Y1426842D01*
X1408051D01*
X1410591Y1424303D01*
Y1416685D01*
Y1421763D02*
X1415669Y1426842D01*
X1413130Y1431920D02*
X1415669Y1434459D01*
Y1439538D01*
X1413130Y1442077D01*
X1402973D01*
X1400434Y1439538D01*
Y1434459D01*
X1402973Y1431920D01*
X1405512D01*
X1408051Y1434459D01*
Y1442077D01*
X1575689Y1492885D02*
X1560454D01*
Y1500502D01*
X1562993Y1503042D01*
X1568071D01*
X1570611Y1500502D01*
Y1492885D01*
Y1497963D02*
X1575689Y1503042D01*
X1562993Y1508120D02*
X1560454Y1510659D01*
Y1515738D01*
X1562993Y1518277D01*
X1565532D01*
X1568071Y1515738D01*
X1570611Y1518277D01*
X1573150D01*
X1575689Y1515738D01*
Y1510659D01*
X1573150Y1508120D01*
X1570611D01*
X1568071Y1510659D01*
X1565532Y1508120D01*
X1562993D01*
X1568071Y1510659D02*
Y1515738D01*
X1574419Y1518285D02*
X1559184D01*
Y1525903D01*
X1561723Y1528442D01*
X1566801D01*
X1569341Y1525903D01*
Y1518285D01*
Y1523363D02*
X1574419Y1528442D01*
X1559184Y1533520D02*
Y1543677D01*
X1561723D01*
X1571880Y1533520D01*
X1574419D01*
X1415669Y1442085D02*
X1400434D01*
Y1449702D01*
X1402973Y1452242D01*
X1408051D01*
X1410591Y1449702D01*
Y1442085D01*
Y1447163D02*
X1415669Y1452242D01*
X1400434Y1467477D02*
X1402973Y1462398D01*
X1408051Y1457320D01*
X1413130D01*
X1415669Y1459859D01*
Y1464938D01*
X1413130Y1467477D01*
X1410591D01*
X1408051Y1464938D01*
Y1457320D01*
X1415669Y1467485D02*
X1400434D01*
Y1475103D01*
X1402973Y1477642D01*
X1408051D01*
X1410591Y1475103D01*
Y1467485D01*
Y1472563D02*
X1415669Y1477642D01*
X1400434Y1492877D02*
Y1482720D01*
X1408051D01*
X1405512Y1487798D01*
Y1490338D01*
X1408051Y1492877D01*
X1413130D01*
X1415669Y1490338D01*
Y1485259D01*
X1413130Y1482720D01*
X1784477Y1379347D02*
X1799712D01*
Y1371729D01*
X1797173Y1369190D01*
X1792095D01*
X1789555Y1371729D01*
Y1379347D01*
Y1374269D02*
X1784477Y1369190D01*
Y1356494D02*
X1799712D01*
X1792095Y1364112D01*
Y1353955D01*
X1688465Y1481201D02*
Y1496436D01*
X1696082D01*
X1698622Y1493897D01*
Y1488819D01*
X1696082Y1486279D01*
X1688465D01*
X1693543D02*
X1698622Y1481201D01*
X1703700Y1493897D02*
X1706239Y1496436D01*
X1711318D01*
X1713857Y1493897D01*
Y1491358D01*
X1711318Y1488819D01*
X1708778D01*
X1711318D01*
X1713857Y1486279D01*
Y1483740D01*
X1711318Y1481201D01*
X1706239D01*
X1703700Y1483740D01*
X1269620Y1295270D02*
X1259463D01*
X1256924Y1292731D01*
Y1287652D01*
X1259463Y1285113D01*
X1269620D01*
X1272159Y1287652D01*
Y1292731D01*
X1267081Y1290191D02*
X1272159Y1295270D01*
Y1292731D02*
X1269620Y1295270D01*
X1272159Y1307966D02*
X1256924D01*
X1264541Y1300348D01*
Y1310505D01*
X1268350Y1405760D02*
X1258193D01*
X1255654Y1403221D01*
Y1398142D01*
X1258193Y1395603D01*
X1268350D01*
X1270889Y1398142D01*
Y1403221D01*
X1265811Y1400681D02*
X1270889Y1405760D01*
Y1403221D02*
X1268350Y1405760D01*
X1258193Y1410838D02*
X1255654Y1413377D01*
Y1418456D01*
X1258193Y1420995D01*
X1260732D01*
X1263271Y1418456D01*
Y1415916D01*
Y1418456D01*
X1265811Y1420995D01*
X1268350D01*
X1270889Y1418456D01*
Y1413377D01*
X1268350Y1410838D01*
Y1514980D02*
X1258193D01*
X1255654Y1512440D01*
Y1507362D01*
X1258193Y1504823D01*
X1268350D01*
X1270889Y1507362D01*
Y1512440D01*
X1265811Y1509901D02*
X1270889Y1514980D01*
Y1512440D02*
X1268350Y1514980D01*
X1270889Y1530215D02*
Y1520058D01*
X1260732Y1530215D01*
X1258193D01*
X1255654Y1527676D01*
Y1522597D01*
X1258193Y1520058D01*
X1268350Y1622930D02*
X1258193D01*
X1255654Y1620390D01*
Y1615312D01*
X1258193Y1612773D01*
X1268350D01*
X1270889Y1615312D01*
Y1620390D01*
X1265811Y1617851D02*
X1270889Y1622930D01*
Y1620390D02*
X1268350Y1622930D01*
X1270889Y1628008D02*
Y1633086D01*
Y1630547D01*
X1255654D01*
X1258193Y1628008D01*
X1557401Y1675892D02*
Y1691127D01*
X1562479Y1686049D01*
X1567558Y1691127D01*
Y1675892D01*
X1572636Y1691127D02*
Y1675892D01*
X1580254D01*
X1582793Y1678431D01*
Y1688588D01*
X1580254Y1691127D01*
X1572636D01*
X1587871Y1675892D02*
X1592950D01*
X1590410D01*
Y1691127D01*
X1587871Y1688588D01*
X1232538Y1196218D02*
X1237617D01*
X1235078D01*
Y1208914D01*
X1237617Y1211453D01*
X1240156D01*
X1242695Y1208914D01*
X1227460D02*
X1224921Y1211453D01*
X1219842D01*
X1217303Y1208914D01*
Y1198757D01*
X1219842Y1196218D01*
X1224921D01*
X1227460Y1198757D01*
Y1201296D01*
X1224921Y1203836D01*
X1217303D01*
X1232538Y1297818D02*
X1237617D01*
X1235078D01*
Y1310514D01*
X1237617Y1313053D01*
X1240156D01*
X1242695Y1310514D01*
X1227460Y1300357D02*
X1224921Y1297818D01*
X1219842D01*
X1217303Y1300357D01*
Y1302896D01*
X1219842Y1305435D01*
X1217303Y1307975D01*
Y1310514D01*
X1219842Y1313053D01*
X1224921D01*
X1227460Y1310514D01*
Y1307975D01*
X1224921Y1305435D01*
X1227460Y1302896D01*
Y1300357D01*
X1224921Y1305435D02*
X1219842D01*
X1232538Y1602618D02*
X1237617D01*
X1235078D01*
Y1615314D01*
X1237617Y1617853D01*
X1240156D01*
X1242695Y1615314D01*
X1227460Y1602618D02*
X1217303D01*
Y1605157D01*
X1227460Y1615314D01*
Y1617853D01*
X1232538Y1399418D02*
X1237617D01*
X1235078D01*
Y1412114D01*
X1237617Y1414653D01*
X1240156D01*
X1242695Y1412114D01*
X1217303Y1399418D02*
X1222382Y1401957D01*
X1227460Y1407036D01*
Y1412114D01*
X1224921Y1414653D01*
X1219842D01*
X1217303Y1412114D01*
Y1409575D01*
X1219842Y1407036D01*
X1227460D01*
X1516502Y1209678D02*
Y1214757D01*
Y1212217D01*
X1503806D01*
X1501267Y1214757D01*
Y1217296D01*
X1503806Y1219835D01*
X1516502Y1194443D02*
Y1204600D01*
X1508884D01*
X1511424Y1199522D01*
Y1196982D01*
X1508884Y1194443D01*
X1503806D01*
X1501267Y1196982D01*
Y1202061D01*
X1503806Y1204600D01*
X1618102Y1209678D02*
Y1214757D01*
Y1212217D01*
X1605406D01*
X1602867Y1214757D01*
Y1217296D01*
X1605406Y1219835D01*
X1602867Y1196982D02*
X1618102D01*
X1610484Y1204600D01*
Y1194443D01*
X1671452Y1793364D02*
Y1788285D01*
Y1790824D01*
X1684148D01*
X1686687Y1788285D01*
Y1785746D01*
X1684148Y1783207D01*
X1673991Y1798442D02*
X1671452Y1800981D01*
Y1806060D01*
X1673991Y1808599D01*
X1676530D01*
X1679070Y1806060D01*
Y1803520D01*
Y1806060D01*
X1681609Y1808599D01*
X1684148D01*
X1686687Y1806060D01*
Y1800981D01*
X1684148Y1798442D01*
X1232538Y1501018D02*
X1237617D01*
X1235078D01*
Y1513714D01*
X1237617Y1516253D01*
X1240156D01*
X1242695Y1513714D01*
X1217303Y1516253D02*
X1227460D01*
X1217303Y1506096D01*
Y1503557D01*
X1219842Y1501018D01*
X1224921D01*
X1227460Y1503557D01*
X1754754Y1706502D02*
Y1711581D01*
Y1709041D01*
X1742058D01*
X1739519Y1711581D01*
Y1714120D01*
X1742058Y1716659D01*
X1739519Y1701424D02*
Y1696346D01*
Y1698885D01*
X1754754D01*
X1752215Y1701424D01*
M02*
