G04*
G04 #@! TF.GenerationSoftware,Altium Limited,Altium Designer,25.2.1 (25)*
G04*
G04 Layer_Physical_Order=2*
G04 Layer_Color=16711680*
%FSLAX44Y44*%
%MOMM*%
G71*
G04*
G04 #@! TF.SameCoordinates,1C064638-B53A-42AB-B659-0CA3A7FDC49E*
G04*
G04*
G04 #@! TF.FilePolarity,Positive*
G04*
G01*
G75*
%ADD10C,0.0100*%
%ADD19C,1.1500*%
%ADD20R,1.1500X1.1500*%
%ADD23C,1.4140*%
%ADD24R,1.4140X1.4140*%
%ADD27R,2.1000X2.1000*%
%ADD28C,2.1000*%
%ADD29R,2.1000X2.1000*%
%ADD30C,2.0000*%
%ADD31C,1.6500*%
%ADD32R,1.6500X1.6500*%
%ADD33C,1.5000*%
G04:AMPARAMS|DCode=34|XSize=1.5mm|YSize=1.5mm|CornerRadius=0.375mm|HoleSize=0mm|Usage=FLASHONLY|Rotation=90.000|XOffset=0mm|YOffset=0mm|HoleType=Round|Shape=RoundedRectangle|*
%AMROUNDEDRECTD34*
21,1,1.5000,0.7500,0,0,90.0*
21,1,0.7500,1.5000,0,0,90.0*
1,1,0.7500,0.3750,0.3750*
1,1,0.7500,0.3750,-0.3750*
1,1,0.7500,-0.3750,-0.3750*
1,1,0.7500,-0.3750,0.3750*
%
%ADD34ROUNDEDRECTD34*%
%ADD35C,0.5000*%
%ADD36C,0.3810*%
G36*
X1775166Y1901143D02*
X1775477Y1901062D01*
X1776063Y1900802D01*
X1776598Y1900449D01*
X1777069Y1900013D01*
X1777461Y1899505D01*
X1777765Y1898940D01*
X1777973Y1898333D01*
X1778078Y1897701D01*
Y1831422D01*
X1778000Y1831358D01*
X1739900D01*
X1737949Y1830970D01*
X1736295Y1829865D01*
X1726135Y1819705D01*
X1725030Y1818051D01*
X1724642Y1816100D01*
Y1715557D01*
X1722642Y1714402D01*
X1720884Y1715417D01*
X1717514Y1716320D01*
X1714026D01*
X1711262Y1715580D01*
X1710138Y1715866D01*
X1709050Y1716451D01*
X1707945Y1718105D01*
X1701595Y1724455D01*
X1699941Y1725560D01*
X1697990Y1725948D01*
X1682750D01*
X1680799Y1725560D01*
X1679145Y1724455D01*
X1674065Y1719375D01*
X1672960Y1717721D01*
X1672572Y1715770D01*
Y1712653D01*
X1670572Y1711708D01*
X1668939Y1712651D01*
X1667470Y1713045D01*
Y1703070D01*
Y1693095D01*
X1668939Y1693489D01*
X1670572Y1694432D01*
X1672572Y1693487D01*
Y1674030D01*
X1671441Y1657060D01*
X1647395Y1633015D01*
X1646290Y1631361D01*
X1645902Y1629410D01*
Y1449912D01*
X1624535Y1428545D01*
X1623430Y1426891D01*
X1623042Y1424940D01*
Y1268302D01*
X1593008Y1238268D01*
X1470660D01*
X1468709Y1237880D01*
X1467055Y1236775D01*
X1432765Y1202485D01*
X1431660Y1200831D01*
X1431272Y1198880D01*
Y1154430D01*
X1431660Y1152479D01*
X1432765Y1150825D01*
X1442925Y1140665D01*
X1444579Y1139560D01*
X1446530Y1139172D01*
X1475740D01*
X1477691Y1139560D01*
X1479345Y1140665D01*
X1489505Y1150825D01*
X1490610Y1152479D01*
X1490998Y1154430D01*
Y1168828D01*
X1496942Y1174772D01*
X1497067Y1174710D01*
X1508800D01*
Y1186443D01*
X1508738Y1186568D01*
X1514682Y1192512D01*
X1649730D01*
X1651681Y1192900D01*
X1653335Y1194005D01*
X1668575Y1209245D01*
X1669680Y1210899D01*
X1670068Y1212850D01*
Y1352978D01*
X1714480Y1397390D01*
X1716711Y1396792D01*
X1717223Y1394881D01*
X1718812Y1392129D01*
X1721059Y1389882D01*
X1723811Y1388293D01*
X1725368Y1387875D01*
Y1385805D01*
X1723811Y1385387D01*
X1721059Y1383798D01*
X1718812Y1381551D01*
X1717223Y1378799D01*
X1716400Y1375729D01*
Y1372551D01*
X1717223Y1369481D01*
X1718812Y1366729D01*
X1721059Y1364482D01*
X1723811Y1362893D01*
X1725368Y1362475D01*
Y1360405D01*
X1723811Y1359987D01*
X1721059Y1358398D01*
X1719365Y1356705D01*
X1709973D01*
X1708371Y1359102D01*
X1706282Y1361191D01*
X1703825Y1362833D01*
X1701095Y1363963D01*
X1698197Y1364540D01*
X1695243D01*
X1692345Y1363963D01*
X1689615Y1362833D01*
X1687158Y1361191D01*
X1685069Y1359102D01*
X1683427Y1356645D01*
X1682296Y1353915D01*
X1681720Y1351017D01*
Y1348063D01*
X1682296Y1345165D01*
X1683427Y1342435D01*
X1685069Y1339978D01*
X1687158Y1337889D01*
X1689615Y1336247D01*
X1692345Y1335116D01*
X1695243Y1334540D01*
X1698197D01*
X1701095Y1335116D01*
X1703825Y1336247D01*
X1706282Y1337889D01*
X1708371Y1339978D01*
X1709438Y1341575D01*
X1718669D01*
X1718812Y1341329D01*
X1721059Y1339082D01*
X1723811Y1337493D01*
X1725368Y1337075D01*
Y1335005D01*
X1723811Y1334587D01*
X1721059Y1332998D01*
X1718812Y1330751D01*
X1717223Y1327999D01*
X1716400Y1324929D01*
Y1321751D01*
X1717223Y1318681D01*
X1718812Y1315929D01*
X1721059Y1313682D01*
X1723811Y1312093D01*
X1725368Y1311675D01*
Y1309605D01*
X1723811Y1309187D01*
X1721059Y1307598D01*
X1718812Y1305351D01*
X1717223Y1302599D01*
X1716400Y1299529D01*
Y1296351D01*
X1717223Y1293281D01*
X1718812Y1290529D01*
X1721059Y1288282D01*
X1723811Y1286693D01*
X1725368Y1286275D01*
Y1284205D01*
X1723811Y1283787D01*
X1721059Y1282198D01*
X1718812Y1279951D01*
X1717223Y1277199D01*
X1716400Y1274129D01*
Y1270951D01*
X1717223Y1267881D01*
X1718812Y1265129D01*
X1721059Y1262882D01*
X1723811Y1261293D01*
X1726881Y1260470D01*
X1730059D01*
X1733129Y1261293D01*
X1735881Y1262882D01*
X1738128Y1265129D01*
X1739717Y1267881D01*
X1740540Y1270951D01*
Y1274129D01*
X1739717Y1277199D01*
X1738128Y1279951D01*
X1735881Y1282198D01*
X1733129Y1283787D01*
X1731572Y1284205D01*
Y1286275D01*
X1733129Y1286693D01*
X1735881Y1288282D01*
X1738128Y1290529D01*
X1739717Y1293281D01*
X1740540Y1296351D01*
Y1299529D01*
X1739717Y1302599D01*
X1738128Y1305351D01*
X1735881Y1307598D01*
X1733129Y1309187D01*
X1731572Y1309605D01*
Y1311675D01*
X1733129Y1312093D01*
X1735881Y1313682D01*
X1738128Y1315929D01*
X1739717Y1318681D01*
X1740540Y1321751D01*
Y1324929D01*
X1739717Y1327999D01*
X1738128Y1330751D01*
X1735881Y1332998D01*
X1733129Y1334587D01*
X1731572Y1335005D01*
Y1337075D01*
X1733129Y1337493D01*
X1735881Y1339082D01*
X1738128Y1341329D01*
X1738271Y1341575D01*
X1754722D01*
X1756159Y1340138D01*
X1758611Y1338723D01*
X1761345Y1337990D01*
X1764175D01*
X1766909Y1338723D01*
X1769361Y1340138D01*
X1771362Y1342139D01*
X1772777Y1344591D01*
X1773510Y1347325D01*
Y1350155D01*
X1772777Y1352889D01*
X1771362Y1355341D01*
X1769361Y1357342D01*
X1766909Y1358757D01*
X1764175Y1359490D01*
X1761345D01*
X1758611Y1358757D01*
X1756159Y1357342D01*
X1755522Y1356705D01*
X1737575D01*
X1735881Y1358398D01*
X1733129Y1359987D01*
X1731572Y1360405D01*
Y1362475D01*
X1733129Y1362893D01*
X1735881Y1364482D01*
X1738128Y1366729D01*
X1739717Y1369481D01*
X1740540Y1372551D01*
Y1375729D01*
X1739717Y1378799D01*
X1738128Y1381551D01*
X1735881Y1383798D01*
X1733129Y1385387D01*
X1731572Y1385805D01*
Y1387875D01*
X1733129Y1388293D01*
X1735881Y1389882D01*
X1738128Y1392129D01*
X1739717Y1394881D01*
X1740540Y1397951D01*
Y1401129D01*
X1739717Y1404199D01*
X1738128Y1406951D01*
X1735881Y1409198D01*
X1733129Y1410787D01*
X1731572Y1411205D01*
Y1413275D01*
X1733129Y1413693D01*
X1735881Y1415282D01*
X1738128Y1417529D01*
X1739717Y1420281D01*
X1740540Y1423351D01*
Y1426529D01*
X1739717Y1429599D01*
X1738128Y1432351D01*
X1737435Y1433045D01*
X1747315Y1442925D01*
X1748420Y1444579D01*
X1748808Y1446530D01*
Y1554480D01*
X1748420Y1556431D01*
X1747315Y1558085D01*
X1738425Y1566975D01*
X1738172Y1567144D01*
X1737918Y1569719D01*
X1738128Y1569929D01*
X1739717Y1572681D01*
X1740540Y1575751D01*
Y1578929D01*
X1739717Y1581999D01*
X1738128Y1584751D01*
X1735881Y1586998D01*
X1733129Y1588587D01*
X1730059Y1589410D01*
X1726881D01*
X1723811Y1588587D01*
X1721059Y1586998D01*
X1718812Y1584751D01*
X1717223Y1581999D01*
X1716400Y1578929D01*
Y1575751D01*
X1717223Y1572681D01*
X1718500Y1570468D01*
X1717680Y1568468D01*
X1714072D01*
X1709438Y1573102D01*
Y1611949D01*
X1711286Y1612715D01*
X1714705Y1609295D01*
X1716359Y1608190D01*
X1718310Y1607802D01*
X1718848D01*
X1719867Y1605802D01*
X1719717Y1605240D01*
X1737223D01*
X1737073Y1605802D01*
X1738092Y1607802D01*
X1767840D01*
X1769791Y1608190D01*
X1771445Y1609295D01*
X1776230Y1614080D01*
X1778078Y1613315D01*
Y1123950D01*
Y1123633D01*
X1777975Y1123007D01*
X1777772Y1122407D01*
X1777475Y1121847D01*
X1777091Y1121342D01*
X1776630Y1120907D01*
X1776105Y1120552D01*
X1775529Y1120286D01*
X1775223Y1120202D01*
X1774892Y1120062D01*
X1144479Y1120062D01*
X1144239Y1120246D01*
X1142946Y1121480D01*
X1142922Y1121510D01*
Y1314923D01*
X1144922Y1315626D01*
X1146129Y1314820D01*
X1148080Y1314432D01*
X1185931D01*
X1186759Y1312432D01*
X1185042Y1310715D01*
X1183392Y1307857D01*
X1182766Y1305520D01*
X1195070D01*
X1207374D01*
X1206748Y1307857D01*
X1205098Y1310715D01*
X1203381Y1312432D01*
X1204209Y1314432D01*
X1222168D01*
X1267665Y1268935D01*
X1269319Y1267830D01*
X1271270Y1267442D01*
X1314450D01*
X1316401Y1267830D01*
X1318055Y1268935D01*
X1326963Y1277843D01*
X1328068Y1279497D01*
X1328456Y1281448D01*
Y1668762D01*
X1328068Y1670713D01*
X1326963Y1672367D01*
X1305355Y1693975D01*
X1303701Y1695080D01*
X1301750Y1695468D01*
X1300981D01*
X1299940Y1697468D01*
X1300660Y1700154D01*
Y1703446D01*
X1299808Y1706625D01*
X1298163Y1709475D01*
X1295835Y1711803D01*
X1295725Y1711866D01*
Y1715946D01*
X1295467Y1717903D01*
X1294711Y1719728D01*
X1293509Y1721295D01*
X1247965Y1766839D01*
X1246398Y1768041D01*
X1244574Y1768797D01*
X1242616Y1769055D01*
X1210570D01*
Y1775720D01*
X1179570D01*
Y1744720D01*
X1210570D01*
Y1753925D01*
X1239482D01*
X1279784Y1713623D01*
X1280485Y1711802D01*
X1278158Y1709475D01*
X1276512Y1706625D01*
X1275660Y1703446D01*
Y1700154D01*
X1276380Y1697468D01*
X1275339Y1695468D01*
X1226582D01*
X1224632Y1695080D01*
X1222978Y1693975D01*
X1220543Y1693796D01*
X1209818Y1704521D01*
X1209974Y1704899D01*
X1210570Y1707893D01*
Y1710947D01*
X1209974Y1713941D01*
X1208806Y1716762D01*
X1207110Y1719301D01*
X1204951Y1721460D01*
X1202412Y1723156D01*
X1199591Y1724324D01*
X1196597Y1724920D01*
X1193543D01*
X1190549Y1724324D01*
X1187728Y1723156D01*
X1185189Y1721460D01*
X1183030Y1719301D01*
X1181334Y1716762D01*
X1180166Y1713941D01*
X1179570Y1710947D01*
Y1707893D01*
X1180166Y1704899D01*
X1181334Y1702078D01*
X1183030Y1699539D01*
X1185102Y1697468D01*
X1185079Y1697093D01*
X1184452Y1695468D01*
X1154430D01*
X1152479Y1695080D01*
X1150825Y1693975D01*
X1144770Y1687920D01*
X1142922Y1688685D01*
Y1884840D01*
X1159350Y1901268D01*
X1774859D01*
X1775166Y1901143D01*
D02*
G37*
G36*
X1323358Y1668762D02*
Y1281448D01*
X1314450Y1272540D01*
X1271270D01*
X1224280Y1319530D01*
X1148080D01*
X1142922Y1324688D01*
X1142922Y1678862D01*
X1154430Y1690370D01*
X1204271D01*
X1248565Y1646075D01*
X1250008Y1644969D01*
X1251687Y1644273D01*
X1253490Y1644035D01*
X1277747D01*
X1278158Y1643325D01*
X1280485Y1640997D01*
X1283335Y1639352D01*
X1286514Y1638500D01*
X1289806D01*
X1292985Y1639352D01*
X1295835Y1640997D01*
X1298163Y1643325D01*
X1299808Y1646175D01*
X1300660Y1649354D01*
Y1652646D01*
X1299808Y1655825D01*
X1298163Y1658675D01*
X1295835Y1661003D01*
X1292985Y1662648D01*
X1289806Y1663500D01*
X1286514D01*
X1283335Y1662648D01*
X1280485Y1661003D01*
X1278158Y1658675D01*
X1277747Y1657965D01*
X1256375D01*
X1225817Y1688522D01*
X1226582Y1690370D01*
X1282957D01*
X1283335Y1690152D01*
X1286514Y1689300D01*
X1289806D01*
X1292985Y1690152D01*
X1293363Y1690370D01*
X1301750D01*
X1323358Y1668762D01*
D02*
G37*
G36*
X1778078Y1826182D02*
Y1623138D01*
X1767840Y1612900D01*
X1718310D01*
X1708150Y1623060D01*
Y1674016D01*
X1729740Y1695606D01*
Y1816100D01*
X1739900Y1826260D01*
X1778000D01*
X1778078Y1826182D01*
D02*
G37*
G36*
X1704340Y1714500D02*
Y1570990D01*
X1711960Y1563370D01*
X1734820D01*
X1743710Y1554480D01*
Y1446530D01*
X1730479Y1433299D01*
X1729601Y1433534D01*
X1727339D01*
X1725153Y1432948D01*
X1723193Y1431817D01*
X1721593Y1430217D01*
X1720746Y1428750D01*
X1711960D01*
Y1402080D01*
X1664970Y1355090D01*
Y1212850D01*
X1649730Y1197610D01*
X1512570D01*
X1485900Y1170940D01*
Y1154430D01*
X1475740Y1144270D01*
X1446530D01*
X1436370Y1154430D01*
Y1198880D01*
X1470660Y1233170D01*
X1595120D01*
X1628140Y1266190D01*
Y1424940D01*
X1651000Y1447800D01*
D01*
Y1629410D01*
X1676400Y1654810D01*
X1677670Y1673860D01*
Y1715770D01*
X1682750Y1720850D01*
X1697990D01*
X1704340Y1714500D01*
D02*
G37*
%LPC*%
G36*
X1697950Y1805544D02*
Y1795740D01*
X1707754D01*
X1707128Y1798077D01*
X1705478Y1800935D01*
X1703145Y1803268D01*
X1700287Y1804918D01*
X1697950Y1805544D01*
D02*
G37*
G36*
X1692950D02*
X1690613Y1804918D01*
X1687755Y1803268D01*
X1685422Y1800935D01*
X1683772Y1798077D01*
X1683146Y1795740D01*
X1692950D01*
Y1805544D01*
D02*
G37*
G36*
X1707754Y1790740D02*
X1697950D01*
Y1780936D01*
X1700287Y1781562D01*
X1703145Y1783212D01*
X1705478Y1785545D01*
X1707128Y1788403D01*
X1707754Y1790740D01*
D02*
G37*
G36*
X1692950D02*
X1683146D01*
X1683772Y1788403D01*
X1685422Y1785545D01*
X1687755Y1783212D01*
X1690613Y1781562D01*
X1692950Y1780936D01*
Y1790740D01*
D02*
G37*
G36*
X1541987Y1718540D02*
X1539033D01*
X1536135Y1717964D01*
X1533405Y1716833D01*
X1530948Y1715191D01*
X1528859Y1713102D01*
X1528378Y1712382D01*
X1525972D01*
X1525491Y1713102D01*
X1523402Y1715191D01*
X1520945Y1716833D01*
X1518215Y1717964D01*
X1515317Y1718540D01*
X1512363D01*
X1509465Y1717964D01*
X1506735Y1716833D01*
X1504278Y1715191D01*
X1502189Y1713102D01*
X1500547Y1710645D01*
X1499417Y1707915D01*
X1498840Y1705017D01*
Y1702063D01*
X1499417Y1699165D01*
X1500547Y1696435D01*
X1502189Y1693978D01*
X1504278Y1691889D01*
X1506735Y1690247D01*
X1509465Y1689117D01*
X1512363Y1688540D01*
X1515317D01*
X1518215Y1689117D01*
X1520945Y1690247D01*
X1523402Y1691889D01*
X1525491Y1693978D01*
X1525972Y1694698D01*
X1528378D01*
X1528859Y1693978D01*
X1530948Y1691889D01*
X1533405Y1690247D01*
X1536135Y1689117D01*
X1539033Y1688540D01*
X1541987D01*
X1544885Y1689117D01*
X1547296Y1690115D01*
X1573897Y1663513D01*
X1575464Y1662311D01*
X1577289Y1661556D01*
X1579246Y1661298D01*
X1579247Y1661298D01*
X1601553D01*
X1603510Y1661556D01*
X1605335Y1662311D01*
X1606902Y1663513D01*
X1617319Y1673931D01*
X1618521Y1675497D01*
X1619276Y1677322D01*
X1619534Y1679280D01*
Y1690867D01*
X1622306Y1692467D01*
X1624773Y1694934D01*
X1625715Y1696567D01*
X1628025D01*
X1628967Y1694934D01*
X1631434Y1692467D01*
X1632005Y1692138D01*
Y1683343D01*
X1589767Y1641105D01*
X1588140Y1640210D01*
Y1640210D01*
X1588140Y1640210D01*
X1564000D01*
Y1616070D01*
X1571456D01*
X1571719Y1614070D01*
X1571411Y1613987D01*
X1568659Y1612398D01*
X1566565Y1610305D01*
X1553944D01*
X1553803Y1610645D01*
X1552161Y1613102D01*
X1550072Y1615191D01*
X1547615Y1616833D01*
X1544885Y1617964D01*
X1541987Y1618540D01*
X1539033D01*
X1536135Y1617964D01*
X1533405Y1616833D01*
X1530948Y1615191D01*
X1528859Y1613102D01*
X1527217Y1610645D01*
X1526684Y1609358D01*
X1524459Y1609212D01*
X1523468Y1610928D01*
X1521228Y1613168D01*
X1518484Y1614752D01*
X1516340Y1615327D01*
Y1603540D01*
X1513840D01*
D01*
X1516340D01*
Y1591753D01*
X1518484Y1592328D01*
X1521228Y1593912D01*
X1523468Y1596152D01*
X1524459Y1597868D01*
X1526684Y1597722D01*
X1527217Y1596435D01*
X1528859Y1593978D01*
X1530948Y1591889D01*
X1533405Y1590247D01*
X1536135Y1589117D01*
X1539033Y1588540D01*
X1541987D01*
X1544885Y1589117D01*
X1547615Y1590247D01*
X1550072Y1591889D01*
X1552161Y1593978D01*
X1552961Y1595175D01*
X1566565D01*
X1568659Y1593082D01*
X1571411Y1591493D01*
X1572968Y1591075D01*
Y1589005D01*
X1571411Y1588587D01*
X1568659Y1586998D01*
X1566412Y1584751D01*
X1564823Y1581999D01*
X1564000Y1578929D01*
Y1575751D01*
X1564823Y1572681D01*
X1566412Y1569929D01*
X1568659Y1567682D01*
X1571411Y1566093D01*
X1574481Y1565270D01*
X1577659D01*
X1580729Y1566093D01*
X1583481Y1567682D01*
X1585728Y1569929D01*
X1587317Y1572681D01*
X1588140Y1575751D01*
Y1578929D01*
X1587317Y1581999D01*
X1585728Y1584751D01*
X1583481Y1586998D01*
X1580729Y1588587D01*
X1579171Y1589005D01*
Y1591075D01*
X1580729Y1591493D01*
X1583481Y1593082D01*
X1585728Y1595329D01*
X1587317Y1598081D01*
X1588140Y1601151D01*
Y1604329D01*
X1587317Y1607399D01*
X1585728Y1610151D01*
X1583481Y1612398D01*
X1580729Y1613987D01*
X1580421Y1614070D01*
X1580684Y1616070D01*
X1588140D01*
Y1621845D01*
X1588770D01*
X1590728Y1622103D01*
X1592552Y1622859D01*
X1594119Y1624061D01*
X1644919Y1674861D01*
X1646121Y1676428D01*
X1646877Y1678252D01*
X1647135Y1680210D01*
Y1692138D01*
X1647706Y1692467D01*
X1650173Y1694934D01*
X1651917Y1697956D01*
X1652820Y1701326D01*
X1654803Y1701286D01*
X1655389Y1699101D01*
X1656742Y1696757D01*
X1658657Y1694842D01*
X1661001Y1693489D01*
X1662470Y1693095D01*
Y1703070D01*
Y1713045D01*
X1661001Y1712651D01*
X1658657Y1711298D01*
X1656742Y1709383D01*
X1655389Y1707039D01*
X1654803Y1704854D01*
X1652820Y1704814D01*
X1651917Y1708184D01*
X1650173Y1711206D01*
X1647706Y1713673D01*
X1644684Y1715417D01*
X1641314Y1716320D01*
X1637826D01*
X1634456Y1715417D01*
X1631434Y1713673D01*
X1628967Y1711206D01*
X1628025Y1709573D01*
X1625715D01*
X1624773Y1711206D01*
X1622306Y1713673D01*
X1619284Y1715417D01*
X1615914Y1716320D01*
X1612426D01*
X1609056Y1715417D01*
X1606034Y1713673D01*
X1604020Y1711658D01*
X1602020Y1712298D01*
Y1716320D01*
X1575520D01*
Y1689820D01*
X1602020D01*
Y1691770D01*
X1604020Y1692786D01*
X1604405Y1692505D01*
Y1682413D01*
X1598419Y1676427D01*
X1582380D01*
X1555510Y1703297D01*
Y1705017D01*
X1554933Y1707915D01*
X1553803Y1710645D01*
X1552161Y1713102D01*
X1550072Y1715191D01*
X1547615Y1716833D01*
X1544885Y1717964D01*
X1541987Y1718540D01*
D02*
G37*
G36*
X1376260Y1710998D02*
Y1704300D01*
X1382958D01*
X1382642Y1705479D01*
X1381387Y1707653D01*
X1379613Y1709427D01*
X1377439Y1710682D01*
X1376260Y1710998D01*
D02*
G37*
G36*
X1371260D02*
X1370081Y1710682D01*
X1367907Y1709427D01*
X1366133Y1707653D01*
X1364878Y1705479D01*
X1364562Y1704300D01*
X1371260D01*
Y1710998D01*
D02*
G37*
G36*
X1382958Y1699300D02*
X1376260D01*
Y1692602D01*
X1377439Y1692918D01*
X1379613Y1694173D01*
X1381387Y1695947D01*
X1382642Y1698121D01*
X1382958Y1699300D01*
D02*
G37*
G36*
X1371260D02*
X1364562D01*
X1364878Y1698121D01*
X1366133Y1695947D01*
X1367907Y1694173D01*
X1370081Y1692918D01*
X1371260Y1692602D01*
Y1699300D01*
D02*
G37*
G36*
X1375406Y1688900D02*
X1372114D01*
X1368935Y1688048D01*
X1366085Y1686402D01*
X1363757Y1684075D01*
X1362112Y1681225D01*
X1361260Y1678046D01*
Y1674754D01*
X1362112Y1671575D01*
X1363757Y1668725D01*
X1366085Y1666398D01*
X1368935Y1664752D01*
X1372114Y1663900D01*
X1375406D01*
X1375529Y1663933D01*
X1377534Y1661927D01*
X1376499Y1660134D01*
X1376260Y1660198D01*
Y1653500D01*
X1382958D01*
X1382894Y1653739D01*
X1384687Y1654774D01*
X1437695Y1601767D01*
Y1487319D01*
X1435679Y1485302D01*
X1434505Y1483545D01*
X1432505Y1484152D01*
Y1573743D01*
X1432247Y1575701D01*
X1431491Y1577526D01*
X1430289Y1579093D01*
X1386335Y1623046D01*
Y1629350D01*
X1386035Y1631634D01*
X1385153Y1633763D01*
X1383750Y1635591D01*
X1381923Y1636993D01*
X1379794Y1637875D01*
X1377510Y1638176D01*
X1370010D01*
X1367726Y1637875D01*
X1365597Y1636993D01*
X1363769Y1635591D01*
X1362367Y1633763D01*
X1361485Y1631634D01*
X1361185Y1629350D01*
Y1621850D01*
X1361485Y1619566D01*
X1362367Y1617437D01*
X1363769Y1615609D01*
X1365597Y1614207D01*
X1367726Y1613325D01*
X1370010Y1613024D01*
X1374961D01*
X1417375Y1570610D01*
Y1535440D01*
X1415527Y1534675D01*
X1385655Y1564547D01*
X1386260Y1566804D01*
Y1570096D01*
X1385408Y1573275D01*
X1383763Y1576125D01*
X1381435Y1578452D01*
X1378585Y1580098D01*
X1375406Y1580950D01*
X1372114D01*
X1368935Y1580098D01*
X1366085Y1578452D01*
X1363757Y1576125D01*
X1362112Y1573275D01*
X1361260Y1570096D01*
Y1566804D01*
X1362112Y1563625D01*
X1363757Y1560775D01*
X1366085Y1558448D01*
X1368935Y1556802D01*
X1372114Y1555950D01*
X1372856D01*
X1374224Y1554582D01*
X1373395Y1552582D01*
X1372505D01*
X1370081Y1551932D01*
X1367907Y1550677D01*
X1366133Y1548903D01*
X1364878Y1546729D01*
X1364562Y1545550D01*
X1373760D01*
Y1543050D01*
X1376260D01*
Y1533852D01*
X1377439Y1534168D01*
X1379613Y1535423D01*
X1381387Y1537197D01*
X1382642Y1539371D01*
X1383292Y1541795D01*
Y1542686D01*
X1385292Y1543514D01*
X1405945Y1522861D01*
Y1498099D01*
X1404097Y1497334D01*
X1386335Y1515096D01*
Y1521400D01*
X1386035Y1523684D01*
X1385153Y1525813D01*
X1383750Y1527641D01*
X1381923Y1529043D01*
X1379794Y1529925D01*
X1377510Y1530226D01*
X1370010D01*
X1367726Y1529925D01*
X1365597Y1529043D01*
X1363769Y1527641D01*
X1362367Y1525813D01*
X1361485Y1523684D01*
X1361185Y1521400D01*
Y1513900D01*
X1361485Y1511616D01*
X1362367Y1509487D01*
X1363769Y1507659D01*
X1365597Y1506257D01*
X1367726Y1505375D01*
X1370010Y1505074D01*
X1374961D01*
X1395785Y1484250D01*
Y1452166D01*
X1393938Y1451401D01*
X1386260Y1459078D01*
Y1460876D01*
X1385408Y1464055D01*
X1383763Y1466905D01*
X1381435Y1469232D01*
X1378585Y1470878D01*
X1375406Y1471730D01*
X1372114D01*
X1368935Y1470878D01*
X1366085Y1469232D01*
X1363757Y1466905D01*
X1362112Y1464055D01*
X1361260Y1460876D01*
Y1457584D01*
X1362112Y1454405D01*
X1363757Y1451555D01*
X1366085Y1449227D01*
X1368935Y1447582D01*
X1372114Y1446730D01*
X1375406D01*
X1376830Y1447112D01*
X1383546Y1440396D01*
X1383464Y1440087D01*
X1381757Y1439755D01*
X1381308Y1439762D01*
X1379613Y1441458D01*
X1377439Y1442712D01*
X1376260Y1443028D01*
Y1433830D01*
Y1424632D01*
X1377439Y1424948D01*
X1379613Y1426203D01*
X1381387Y1427977D01*
X1382355Y1429654D01*
X1384355Y1429118D01*
Y1420477D01*
X1382355Y1419491D01*
X1381923Y1419823D01*
X1379794Y1420705D01*
X1377510Y1421006D01*
X1370010D01*
X1367726Y1420705D01*
X1365597Y1419823D01*
X1363769Y1418421D01*
X1362367Y1416593D01*
X1361485Y1414464D01*
X1361185Y1412180D01*
Y1404680D01*
X1361485Y1402396D01*
X1362367Y1400267D01*
X1363769Y1398439D01*
X1365597Y1397037D01*
X1367726Y1396155D01*
X1370010Y1395854D01*
X1376314D01*
X1425907Y1346261D01*
X1427474Y1345059D01*
X1429299Y1344303D01*
X1431256Y1344045D01*
X1433039D01*
X1434037Y1341635D01*
X1435679Y1339178D01*
X1437583Y1337273D01*
X1437841Y1336356D01*
Y1335724D01*
X1437583Y1334807D01*
X1436552Y1333775D01*
X1403399D01*
X1387530Y1349644D01*
Y1350386D01*
X1386678Y1353565D01*
X1385033Y1356415D01*
X1382705Y1358743D01*
X1379855Y1360388D01*
X1376676Y1361240D01*
X1373384D01*
X1370205Y1360388D01*
X1367355Y1358743D01*
X1365027Y1356415D01*
X1363382Y1353565D01*
X1362530Y1350386D01*
Y1347094D01*
X1363382Y1343915D01*
X1365027Y1341065D01*
X1367355Y1338737D01*
X1370205Y1337092D01*
X1373384Y1336240D01*
X1376676D01*
X1378933Y1336845D01*
X1394917Y1320861D01*
X1394917Y1320861D01*
X1396483Y1319659D01*
X1398308Y1318903D01*
X1400266Y1318645D01*
X1400266Y1318645D01*
X1433039D01*
X1434037Y1316235D01*
X1435679Y1313778D01*
X1437583Y1311873D01*
X1437841Y1310956D01*
Y1310324D01*
X1437583Y1309407D01*
X1435679Y1307502D01*
X1434344Y1305505D01*
X1386671D01*
X1386423Y1306103D01*
X1385020Y1307931D01*
X1383193Y1309333D01*
X1381064Y1310215D01*
X1378780Y1310515D01*
X1371280D01*
X1368996Y1310215D01*
X1366867Y1309333D01*
X1365039Y1307931D01*
X1363637Y1306103D01*
X1362755Y1303974D01*
X1362455Y1301690D01*
Y1294190D01*
X1362755Y1291906D01*
X1363637Y1289777D01*
X1365039Y1287949D01*
X1366867Y1286547D01*
X1368996Y1285665D01*
X1371280Y1285365D01*
X1378780D01*
X1381064Y1285665D01*
X1383193Y1286547D01*
X1385020Y1287949D01*
X1386423Y1289777D01*
X1386671Y1290375D01*
X1434344D01*
X1435679Y1288378D01*
X1437768Y1286289D01*
X1440225Y1284647D01*
X1442955Y1283517D01*
X1445853Y1282940D01*
X1448807D01*
X1451705Y1283517D01*
X1454435Y1284647D01*
X1456892Y1286289D01*
X1458981Y1288378D01*
X1460623Y1290835D01*
X1461754Y1293565D01*
X1462330Y1296463D01*
Y1299417D01*
X1461754Y1302315D01*
X1460623Y1305045D01*
X1458981Y1307502D01*
X1457077Y1309407D01*
X1456819Y1310324D01*
Y1310956D01*
X1457077Y1311873D01*
X1458981Y1313778D01*
X1460623Y1316235D01*
X1461754Y1318965D01*
X1462330Y1321863D01*
Y1324817D01*
X1461754Y1327715D01*
X1460623Y1330445D01*
X1458981Y1332902D01*
X1457077Y1334807D01*
X1456819Y1335724D01*
Y1336356D01*
X1457077Y1337273D01*
X1458981Y1339178D01*
X1460623Y1341635D01*
X1461754Y1344365D01*
X1462330Y1347263D01*
Y1350217D01*
X1461754Y1353115D01*
X1460623Y1355845D01*
X1458981Y1358302D01*
X1457077Y1360207D01*
X1456819Y1361124D01*
Y1361756D01*
X1457077Y1362673D01*
X1458981Y1364578D01*
X1460623Y1367035D01*
X1461754Y1369765D01*
X1462330Y1372663D01*
Y1375617D01*
X1461754Y1378515D01*
X1460623Y1381245D01*
X1458981Y1383702D01*
X1457077Y1385607D01*
X1456819Y1386524D01*
Y1387156D01*
X1457077Y1388073D01*
X1458981Y1389978D01*
X1460623Y1392435D01*
X1461754Y1395165D01*
X1462330Y1398063D01*
Y1401017D01*
X1461754Y1403915D01*
X1460623Y1406645D01*
X1458981Y1409102D01*
X1457077Y1411007D01*
X1456819Y1411924D01*
Y1412556D01*
X1457077Y1413473D01*
X1458981Y1415378D01*
X1460623Y1417835D01*
X1461754Y1420565D01*
X1462330Y1423463D01*
Y1426417D01*
X1461754Y1429315D01*
X1460623Y1432045D01*
X1458981Y1434502D01*
X1457077Y1436407D01*
X1456819Y1437324D01*
Y1437956D01*
X1457077Y1438873D01*
X1458981Y1440778D01*
X1460623Y1443235D01*
X1461754Y1445965D01*
X1462330Y1448863D01*
Y1451817D01*
X1461754Y1454715D01*
X1460623Y1457445D01*
X1458981Y1459902D01*
X1457077Y1461807D01*
X1456819Y1462724D01*
Y1463356D01*
X1457077Y1464273D01*
X1458981Y1466178D01*
X1460623Y1468635D01*
X1461754Y1471365D01*
X1462330Y1474263D01*
Y1477217D01*
X1461754Y1480115D01*
X1460623Y1482845D01*
X1458981Y1485302D01*
X1456892Y1487391D01*
X1454435Y1489033D01*
X1452825Y1489700D01*
Y1604900D01*
X1452567Y1606858D01*
X1451811Y1608682D01*
X1450609Y1610249D01*
X1386227Y1674631D01*
X1386260Y1674754D01*
Y1678046D01*
X1385408Y1681225D01*
X1383763Y1684075D01*
X1381435Y1686402D01*
X1378585Y1688048D01*
X1375406Y1688900D01*
D02*
G37*
G36*
X1371260Y1660198D02*
X1370081Y1659882D01*
X1367907Y1658627D01*
X1366133Y1656853D01*
X1364878Y1654679D01*
X1364562Y1653500D01*
X1371260D01*
Y1660198D01*
D02*
G37*
G36*
X1382958Y1648500D02*
X1376260D01*
Y1641802D01*
X1377439Y1642118D01*
X1379613Y1643372D01*
X1381387Y1645147D01*
X1382642Y1647321D01*
X1382958Y1648500D01*
D02*
G37*
G36*
X1371260D02*
X1364562D01*
X1364878Y1647321D01*
X1366133Y1645147D01*
X1367907Y1643372D01*
X1370081Y1642118D01*
X1371260Y1641802D01*
Y1648500D01*
D02*
G37*
G36*
X1511340Y1615327D02*
X1509196Y1614752D01*
X1506452Y1613168D01*
X1504212Y1610928D01*
X1502628Y1608184D01*
X1502053Y1606040D01*
X1511340D01*
Y1615327D01*
D02*
G37*
G36*
X1376260Y1603048D02*
Y1596350D01*
X1382958D01*
X1382642Y1597529D01*
X1381387Y1599703D01*
X1379613Y1601478D01*
X1377439Y1602732D01*
X1376260Y1603048D01*
D02*
G37*
G36*
X1371260D02*
X1370081Y1602732D01*
X1367907Y1601478D01*
X1366133Y1599703D01*
X1364878Y1597529D01*
X1364562Y1596350D01*
X1371260D01*
Y1603048D01*
D02*
G37*
G36*
X1737223Y1600240D02*
X1730970D01*
Y1593987D01*
X1731983Y1594258D01*
X1734059Y1595457D01*
X1735753Y1597151D01*
X1736952Y1599227D01*
X1737223Y1600240D01*
D02*
G37*
G36*
X1725970D02*
X1719717D01*
X1719988Y1599227D01*
X1721187Y1597151D01*
X1722881Y1595457D01*
X1724957Y1594258D01*
X1725970Y1593987D01*
Y1600240D01*
D02*
G37*
G36*
X1511340Y1601040D02*
X1502053D01*
X1502628Y1598896D01*
X1504212Y1596152D01*
X1506452Y1593912D01*
X1509196Y1592328D01*
X1511340Y1591753D01*
Y1601040D01*
D02*
G37*
G36*
X1382958Y1591350D02*
X1376260D01*
Y1584652D01*
X1377439Y1584968D01*
X1379613Y1586223D01*
X1381387Y1587997D01*
X1382642Y1590171D01*
X1382958Y1591350D01*
D02*
G37*
G36*
X1371260D02*
X1364562D01*
X1364878Y1590171D01*
X1366133Y1587997D01*
X1367907Y1586223D01*
X1370081Y1584968D01*
X1371260Y1584652D01*
Y1591350D01*
D02*
G37*
G36*
X1578570Y1560693D02*
Y1554440D01*
X1584823D01*
X1584552Y1555453D01*
X1583353Y1557529D01*
X1581659Y1559223D01*
X1579583Y1560422D01*
X1578570Y1560693D01*
D02*
G37*
G36*
X1573570D02*
X1572557Y1560422D01*
X1570481Y1559223D01*
X1568787Y1557529D01*
X1567588Y1555453D01*
X1567317Y1554440D01*
X1573570D01*
Y1560693D01*
D02*
G37*
G36*
X1584823Y1549440D02*
X1578570D01*
Y1543187D01*
X1579583Y1543458D01*
X1581659Y1544657D01*
X1583353Y1546351D01*
X1584552Y1548427D01*
X1584823Y1549440D01*
D02*
G37*
G36*
X1573570D02*
X1567317D01*
X1567588Y1548427D01*
X1568787Y1546351D01*
X1570481Y1544657D01*
X1572557Y1543458D01*
X1573570Y1543187D01*
Y1549440D01*
D02*
G37*
G36*
X1371260Y1540550D02*
X1364562D01*
X1364878Y1539371D01*
X1366133Y1537197D01*
X1367907Y1535423D01*
X1370081Y1534168D01*
X1371260Y1533852D01*
Y1540550D01*
D02*
G37*
G36*
X1607557Y1541540D02*
X1604603D01*
X1601705Y1540963D01*
X1598975Y1539833D01*
X1596518Y1538191D01*
X1594429Y1536102D01*
X1592787Y1533645D01*
X1592729Y1533505D01*
X1585986D01*
X1585728Y1533951D01*
X1583481Y1536198D01*
X1580729Y1537787D01*
X1577659Y1538610D01*
X1574481D01*
X1571411Y1537787D01*
X1568659Y1536198D01*
X1566412Y1533951D01*
X1566154Y1533505D01*
X1534160D01*
X1532357Y1533267D01*
X1530678Y1532572D01*
X1529235Y1531465D01*
X1494945Y1497175D01*
X1493839Y1495732D01*
X1493143Y1494053D01*
X1492905Y1492250D01*
Y1303365D01*
X1460155Y1270615D01*
X1446530D01*
X1444727Y1270377D01*
X1443048Y1269681D01*
X1441605Y1268575D01*
X1362570Y1189540D01*
X1361463Y1188097D01*
X1361303Y1187710D01*
X1343400D01*
Y1156710D01*
X1374400D01*
Y1180352D01*
X1374460Y1180805D01*
Y1181730D01*
X1404177Y1211447D01*
X1406025Y1210682D01*
Y1187283D01*
X1405179Y1187114D01*
X1402358Y1185946D01*
X1399819Y1184250D01*
X1397660Y1182091D01*
X1395964Y1179552D01*
X1394796Y1176731D01*
X1394200Y1173737D01*
Y1170683D01*
X1394796Y1167689D01*
X1395964Y1164868D01*
X1397660Y1162329D01*
X1399819Y1160170D01*
X1402358Y1158474D01*
X1405179Y1157306D01*
X1408173Y1156710D01*
X1411227D01*
X1414221Y1157306D01*
X1417042Y1158474D01*
X1419581Y1160170D01*
X1421740Y1162329D01*
X1423436Y1164868D01*
X1424604Y1167689D01*
X1425200Y1170683D01*
Y1173737D01*
X1424604Y1176731D01*
X1423436Y1179552D01*
X1421740Y1182091D01*
X1419954Y1183877D01*
Y1211984D01*
X1455765Y1247795D01*
X1469390D01*
X1471193Y1248033D01*
X1472872Y1248728D01*
X1474315Y1249835D01*
X1518765Y1294285D01*
X1519872Y1295728D01*
X1520567Y1297407D01*
X1520805Y1299210D01*
Y1482928D01*
X1530075Y1492199D01*
X1542935D01*
X1543132Y1490199D01*
X1542955Y1490164D01*
X1540225Y1489033D01*
X1537768Y1487391D01*
X1535679Y1485302D01*
X1534037Y1482845D01*
X1532906Y1480115D01*
X1532330Y1477217D01*
Y1474263D01*
X1532906Y1471365D01*
X1534037Y1468635D01*
X1535679Y1466178D01*
X1537583Y1464273D01*
X1537841Y1463356D01*
Y1462724D01*
X1537583Y1461807D01*
X1535679Y1459902D01*
X1534037Y1457445D01*
X1532906Y1454715D01*
X1532330Y1451817D01*
Y1448863D01*
X1532906Y1445965D01*
X1534037Y1443235D01*
X1535679Y1440778D01*
X1537583Y1438873D01*
X1537841Y1437956D01*
Y1437324D01*
X1537583Y1436407D01*
X1535679Y1434502D01*
X1534037Y1432045D01*
X1532906Y1429315D01*
X1532330Y1426417D01*
Y1423463D01*
X1532906Y1420565D01*
X1534037Y1417835D01*
X1535679Y1415378D01*
X1537583Y1413473D01*
X1537841Y1412556D01*
Y1411924D01*
X1537583Y1411007D01*
X1535679Y1409102D01*
X1534037Y1406645D01*
X1532906Y1403915D01*
X1532330Y1401017D01*
Y1398063D01*
X1532906Y1395165D01*
X1534037Y1392435D01*
X1535679Y1389978D01*
X1537583Y1388073D01*
X1537841Y1387156D01*
Y1386524D01*
X1537583Y1385607D01*
X1535679Y1383702D01*
X1534037Y1381245D01*
X1532906Y1378515D01*
X1532330Y1375617D01*
Y1372663D01*
X1532906Y1369765D01*
X1534037Y1367035D01*
X1535679Y1364578D01*
X1537583Y1362673D01*
X1537841Y1361756D01*
Y1361124D01*
X1537583Y1360207D01*
X1535679Y1358302D01*
X1534037Y1355845D01*
X1532906Y1353115D01*
X1532330Y1350217D01*
Y1347263D01*
X1532906Y1344365D01*
X1534037Y1341635D01*
X1535679Y1339178D01*
X1537583Y1337273D01*
X1537841Y1336356D01*
Y1335724D01*
X1537583Y1334807D01*
X1535679Y1332902D01*
X1534037Y1330445D01*
X1532906Y1327715D01*
X1532330Y1324817D01*
Y1321863D01*
X1532906Y1318965D01*
X1534037Y1316235D01*
X1535679Y1313778D01*
X1537583Y1311873D01*
X1537841Y1310956D01*
Y1310324D01*
X1537583Y1309407D01*
X1535679Y1307502D01*
X1534037Y1305045D01*
X1532906Y1302315D01*
X1532330Y1299417D01*
Y1296463D01*
X1532906Y1293565D01*
X1534037Y1290835D01*
X1535679Y1288378D01*
X1537768Y1286289D01*
X1540225Y1284647D01*
X1542955Y1283517D01*
X1545853Y1282940D01*
X1548807D01*
X1551705Y1283517D01*
X1554435Y1284647D01*
X1556892Y1286289D01*
X1558981Y1288378D01*
X1560316Y1290375D01*
X1566565D01*
X1568659Y1288282D01*
X1571411Y1286693D01*
X1572968Y1286275D01*
Y1284205D01*
X1571411Y1283787D01*
X1568659Y1282198D01*
X1566412Y1279951D01*
X1564823Y1277199D01*
X1564000Y1274129D01*
Y1270951D01*
X1564823Y1267881D01*
X1566412Y1265129D01*
X1568659Y1262882D01*
X1571411Y1261293D01*
X1574481Y1260470D01*
X1577659D01*
X1580729Y1261293D01*
X1583481Y1262882D01*
X1585728Y1265129D01*
X1587317Y1267881D01*
X1588140Y1270951D01*
Y1274129D01*
X1587317Y1277199D01*
X1585728Y1279951D01*
X1583481Y1282198D01*
X1580729Y1283787D01*
X1579171Y1284205D01*
Y1286275D01*
X1580729Y1286693D01*
X1583481Y1288282D01*
X1585728Y1290529D01*
X1587317Y1293281D01*
X1588140Y1296351D01*
Y1299529D01*
X1587317Y1302599D01*
X1585728Y1305351D01*
X1583481Y1307598D01*
X1580729Y1309187D01*
X1579171Y1309605D01*
Y1311675D01*
X1580729Y1312093D01*
X1583481Y1313682D01*
X1585728Y1315929D01*
X1587317Y1318681D01*
X1588140Y1321751D01*
Y1324929D01*
X1587317Y1327999D01*
X1585728Y1330751D01*
X1583481Y1332998D01*
X1580729Y1334587D01*
X1579171Y1335005D01*
Y1337075D01*
X1580729Y1337493D01*
X1583481Y1339082D01*
X1585728Y1341329D01*
X1587317Y1344081D01*
X1588140Y1347151D01*
Y1350329D01*
X1587317Y1353399D01*
X1585728Y1356151D01*
X1583481Y1358398D01*
X1580729Y1359987D01*
X1579171Y1360405D01*
Y1362475D01*
X1580729Y1362893D01*
X1583481Y1364482D01*
X1585728Y1366729D01*
X1587317Y1369481D01*
X1588140Y1372551D01*
Y1375729D01*
X1587317Y1378799D01*
X1585728Y1381551D01*
X1583481Y1383798D01*
X1580729Y1385387D01*
X1579171Y1385805D01*
Y1387875D01*
X1580729Y1388293D01*
X1583481Y1389882D01*
X1585728Y1392129D01*
X1587317Y1394881D01*
X1588140Y1397951D01*
Y1401129D01*
X1587317Y1404199D01*
X1585728Y1406951D01*
X1583481Y1409198D01*
X1580729Y1410787D01*
X1579171Y1411205D01*
Y1413275D01*
X1580729Y1413693D01*
X1583481Y1415282D01*
X1585728Y1417529D01*
X1587317Y1420281D01*
X1588140Y1423351D01*
Y1426529D01*
X1587317Y1429599D01*
X1585728Y1432351D01*
X1583481Y1434598D01*
X1580729Y1436187D01*
X1579171Y1436605D01*
Y1438675D01*
X1580729Y1439093D01*
X1583481Y1440682D01*
X1585728Y1442929D01*
X1587317Y1445681D01*
X1588140Y1448751D01*
Y1451929D01*
X1587317Y1454999D01*
X1585728Y1457751D01*
X1583481Y1459998D01*
X1580729Y1461587D01*
X1579171Y1462005D01*
Y1464075D01*
X1580729Y1464493D01*
X1583481Y1466082D01*
X1585728Y1468329D01*
X1587317Y1471081D01*
X1588140Y1474151D01*
Y1477329D01*
X1587317Y1480399D01*
X1585728Y1483151D01*
X1583481Y1485398D01*
X1580729Y1486987D01*
X1579171Y1487405D01*
Y1489475D01*
X1580729Y1489893D01*
X1583481Y1491482D01*
X1585728Y1493729D01*
X1585986Y1494175D01*
X1593999D01*
X1594057Y1494035D01*
X1595699Y1491578D01*
X1597788Y1489489D01*
X1600245Y1487847D01*
X1602975Y1486716D01*
X1605873Y1486140D01*
X1608827D01*
X1611725Y1486716D01*
X1614455Y1487847D01*
X1616912Y1489489D01*
X1619001Y1491578D01*
X1620643Y1494035D01*
X1621774Y1496765D01*
X1622350Y1499663D01*
Y1502617D01*
X1621774Y1505515D01*
X1620643Y1508245D01*
X1619001Y1510702D01*
X1616912Y1512791D01*
X1616336Y1513176D01*
X1616335Y1515582D01*
X1617731Y1516978D01*
X1619373Y1519435D01*
X1620504Y1522165D01*
X1621080Y1525063D01*
Y1528017D01*
X1620504Y1530915D01*
X1619373Y1533645D01*
X1617731Y1536102D01*
X1615642Y1538191D01*
X1613185Y1539833D01*
X1610455Y1540963D01*
X1607557Y1541540D01*
D02*
G37*
G36*
X1376260Y1493828D02*
Y1487130D01*
X1382958D01*
X1382642Y1488309D01*
X1381387Y1490483D01*
X1379613Y1492258D01*
X1377439Y1493512D01*
X1376260Y1493828D01*
D02*
G37*
G36*
X1371260D02*
X1370081Y1493512D01*
X1367907Y1492258D01*
X1366133Y1490483D01*
X1364878Y1488309D01*
X1364562Y1487130D01*
X1371260D01*
Y1493828D01*
D02*
G37*
G36*
X1382958Y1482130D02*
X1376260D01*
Y1475432D01*
X1377439Y1475748D01*
X1379613Y1477003D01*
X1381387Y1478777D01*
X1382642Y1480951D01*
X1382958Y1482130D01*
D02*
G37*
G36*
X1371260D02*
X1364562D01*
X1364878Y1480951D01*
X1366133Y1478777D01*
X1367907Y1477003D01*
X1370081Y1475748D01*
X1371260Y1475432D01*
Y1482130D01*
D02*
G37*
G36*
Y1443028D02*
X1370081Y1442712D01*
X1367907Y1441458D01*
X1366133Y1439683D01*
X1364878Y1437509D01*
X1364562Y1436330D01*
X1371260D01*
Y1443028D01*
D02*
G37*
G36*
Y1431330D02*
X1364562D01*
X1364878Y1430151D01*
X1366133Y1427977D01*
X1367907Y1426203D01*
X1370081Y1424948D01*
X1371260Y1424632D01*
Y1431330D01*
D02*
G37*
G36*
X1770542Y1381922D02*
X1765260D01*
Y1376640D01*
X1770542D01*
Y1381922D01*
D02*
G37*
G36*
X1760260D02*
X1754978D01*
Y1376640D01*
X1760260D01*
Y1381922D01*
D02*
G37*
G36*
X1377530Y1383338D02*
Y1376640D01*
X1384228D01*
X1383912Y1377819D01*
X1382657Y1379993D01*
X1380883Y1381767D01*
X1378709Y1383022D01*
X1377530Y1383338D01*
D02*
G37*
G36*
X1372530D02*
X1371351Y1383022D01*
X1369177Y1381767D01*
X1367402Y1379993D01*
X1366148Y1377819D01*
X1365832Y1376640D01*
X1372530D01*
Y1383338D01*
D02*
G37*
G36*
X1770542Y1371640D02*
X1765260D01*
Y1366358D01*
X1770542D01*
Y1371640D01*
D02*
G37*
G36*
X1760260D02*
X1754978D01*
Y1366358D01*
X1760260D01*
Y1371640D01*
D02*
G37*
G36*
X1384228Y1371640D02*
X1377530D01*
Y1364942D01*
X1378709Y1365258D01*
X1380883Y1366512D01*
X1382657Y1368287D01*
X1383912Y1370461D01*
X1384228Y1371640D01*
D02*
G37*
G36*
X1372530D02*
X1365832D01*
X1366148Y1370461D01*
X1367402Y1368287D01*
X1369177Y1366512D01*
X1371351Y1365258D01*
X1372530Y1364942D01*
Y1371640D01*
D02*
G37*
G36*
X1377530Y1332538D02*
Y1325840D01*
X1384228D01*
X1383912Y1327019D01*
X1382657Y1329193D01*
X1380883Y1330968D01*
X1378709Y1332222D01*
X1377530Y1332538D01*
D02*
G37*
G36*
X1372530D02*
X1371351Y1332222D01*
X1369177Y1330968D01*
X1367402Y1329193D01*
X1366148Y1327019D01*
X1365832Y1325840D01*
X1372530D01*
Y1332538D01*
D02*
G37*
G36*
X1384228Y1320840D02*
X1377530D01*
Y1314142D01*
X1378709Y1314458D01*
X1380883Y1315712D01*
X1382657Y1317487D01*
X1383912Y1319661D01*
X1384228Y1320840D01*
D02*
G37*
G36*
X1372530D02*
X1365832D01*
X1366148Y1319661D01*
X1367402Y1317487D01*
X1369177Y1315712D01*
X1371351Y1314458D01*
X1372530Y1314142D01*
Y1320840D01*
D02*
G37*
G36*
X1207374Y1300520D02*
X1197570D01*
Y1290716D01*
X1199907Y1291342D01*
X1202765Y1292992D01*
X1205098Y1295325D01*
X1206748Y1298183D01*
X1207374Y1300520D01*
D02*
G37*
G36*
X1192570D02*
X1182766D01*
X1183392Y1298183D01*
X1185042Y1295325D01*
X1187375Y1292992D01*
X1190233Y1291342D01*
X1192570Y1290716D01*
Y1300520D01*
D02*
G37*
G36*
X1513800Y1184514D02*
Y1174710D01*
X1523604D01*
X1522978Y1177047D01*
X1521328Y1179905D01*
X1518995Y1182238D01*
X1516137Y1183888D01*
X1513800Y1184514D01*
D02*
G37*
G36*
X1523604Y1169710D02*
X1513800D01*
Y1159906D01*
X1516137Y1160532D01*
X1518995Y1162182D01*
X1521328Y1164515D01*
X1522978Y1167373D01*
X1523604Y1169710D01*
D02*
G37*
G36*
X1508800D02*
X1498996D01*
X1499622Y1167373D01*
X1501272Y1164515D01*
X1503605Y1162182D01*
X1506463Y1160532D01*
X1508800Y1159906D01*
Y1169710D01*
D02*
G37*
G36*
X1290660Y1685598D02*
Y1678900D01*
X1297358D01*
X1297042Y1680079D01*
X1295788Y1682253D01*
X1294013Y1684028D01*
X1291839Y1685282D01*
X1290660Y1685598D01*
D02*
G37*
G36*
X1285660D02*
X1284481Y1685282D01*
X1282307Y1684028D01*
X1280533Y1682253D01*
X1279278Y1680079D01*
X1278962Y1678900D01*
X1285660D01*
Y1685598D01*
D02*
G37*
G36*
Y1673900D02*
X1278962D01*
X1279278Y1672721D01*
X1280533Y1670547D01*
X1282307Y1668772D01*
X1284481Y1667518D01*
X1285660Y1667202D01*
Y1673900D01*
D02*
G37*
G36*
X1297358D02*
X1290660D01*
Y1667202D01*
X1291839Y1667518D01*
X1294013Y1668772D01*
X1295788Y1670547D01*
X1297042Y1672721D01*
X1297358Y1673900D01*
D02*
G37*
G36*
X1290660Y1634798D02*
Y1628100D01*
X1297358D01*
X1297042Y1629279D01*
X1295788Y1631453D01*
X1294013Y1633228D01*
X1291839Y1634482D01*
X1290660Y1634798D01*
D02*
G37*
G36*
X1285660D02*
X1284481Y1634482D01*
X1282307Y1633228D01*
X1280533Y1631453D01*
X1279278Y1629279D01*
X1278962Y1628100D01*
X1285660D01*
Y1634798D01*
D02*
G37*
G36*
Y1623100D02*
X1278962D01*
X1279278Y1621921D01*
X1280533Y1619747D01*
X1282307Y1617973D01*
X1284481Y1616718D01*
X1285660Y1616402D01*
Y1623100D01*
D02*
G37*
G36*
X1297358D02*
X1290660D01*
Y1616402D01*
X1291839Y1616718D01*
X1294013Y1617973D01*
X1295788Y1619747D01*
X1297042Y1621921D01*
X1297358Y1623100D01*
D02*
G37*
G36*
X1210570Y1674120D02*
X1179570D01*
Y1643120D01*
X1199872D01*
X1252845Y1590147D01*
X1252845Y1590147D01*
X1254412Y1588944D01*
X1256236Y1588189D01*
X1258194Y1587931D01*
X1258195Y1587931D01*
X1277144D01*
X1278158Y1586175D01*
X1280485Y1583848D01*
X1283335Y1582202D01*
X1286514Y1581350D01*
X1289806D01*
X1292985Y1582202D01*
X1295835Y1583848D01*
X1298163Y1586175D01*
X1299808Y1589025D01*
X1300660Y1592204D01*
Y1595496D01*
X1299808Y1598675D01*
X1298163Y1601525D01*
X1295835Y1603853D01*
X1292985Y1605498D01*
X1289806Y1606350D01*
X1286514D01*
X1283335Y1605498D01*
X1280485Y1603853D01*
X1279693Y1603060D01*
X1261328D01*
X1210570Y1653818D01*
Y1674120D01*
D02*
G37*
G36*
X1290660Y1577648D02*
Y1570950D01*
X1297358D01*
X1297042Y1572129D01*
X1295788Y1574303D01*
X1294013Y1576078D01*
X1291839Y1577332D01*
X1290660Y1577648D01*
D02*
G37*
G36*
X1285660D02*
X1284481Y1577332D01*
X1282307Y1576078D01*
X1280533Y1574303D01*
X1279278Y1572129D01*
X1278962Y1570950D01*
X1285660D01*
Y1577648D01*
D02*
G37*
G36*
Y1565950D02*
X1278962D01*
X1279278Y1564771D01*
X1280533Y1562597D01*
X1282307Y1560822D01*
X1284481Y1559568D01*
X1285660Y1559252D01*
Y1565950D01*
D02*
G37*
G36*
X1297358D02*
X1290660D01*
Y1559252D01*
X1291839Y1559568D01*
X1294013Y1560822D01*
X1295788Y1562597D01*
X1297042Y1564771D01*
X1297358Y1565950D01*
D02*
G37*
G36*
X1196597Y1623320D02*
X1193543D01*
X1190549Y1622724D01*
X1187728Y1621556D01*
X1185189Y1619860D01*
X1183030Y1617701D01*
X1181334Y1615162D01*
X1180166Y1612341D01*
X1179570Y1609347D01*
Y1606293D01*
X1180166Y1603299D01*
X1181334Y1600478D01*
X1183030Y1597939D01*
X1185189Y1595780D01*
X1187728Y1594084D01*
X1190549Y1592916D01*
X1193543Y1592320D01*
X1196597D01*
X1199591Y1592916D01*
X1202412Y1594084D01*
X1202427Y1594094D01*
X1256907Y1539614D01*
X1256907Y1539614D01*
X1258474Y1538412D01*
X1260298Y1537657D01*
X1262256Y1537399D01*
X1276989D01*
X1278158Y1535375D01*
X1280485Y1533047D01*
X1283335Y1531402D01*
X1286514Y1530550D01*
X1289806D01*
X1292985Y1531402D01*
X1295835Y1533047D01*
X1298163Y1535375D01*
X1299808Y1538225D01*
X1300660Y1541404D01*
Y1544696D01*
X1299808Y1547875D01*
X1298163Y1550725D01*
X1295835Y1553053D01*
X1292985Y1554698D01*
X1289806Y1555550D01*
X1286514D01*
X1283335Y1554698D01*
X1280485Y1553053D01*
X1279960Y1552528D01*
X1265390D01*
X1210570Y1607348D01*
Y1609347D01*
X1209974Y1612341D01*
X1208806Y1615162D01*
X1207110Y1617701D01*
X1204951Y1619860D01*
X1202412Y1621556D01*
X1199591Y1622724D01*
X1196597Y1623320D01*
D02*
G37*
G36*
X1290660Y1526848D02*
Y1520150D01*
X1297358D01*
X1297042Y1521329D01*
X1295788Y1523503D01*
X1294013Y1525278D01*
X1291839Y1526532D01*
X1290660Y1526848D01*
D02*
G37*
G36*
X1285660D02*
X1284481Y1526532D01*
X1282307Y1525278D01*
X1280533Y1523503D01*
X1279278Y1521329D01*
X1278962Y1520150D01*
X1285660D01*
Y1526848D01*
D02*
G37*
G36*
Y1515150D02*
X1278962D01*
X1279278Y1513971D01*
X1280533Y1511797D01*
X1282307Y1510022D01*
X1284481Y1508768D01*
X1285660Y1508452D01*
Y1515150D01*
D02*
G37*
G36*
X1297358D02*
X1290660D01*
Y1508452D01*
X1291839Y1508768D01*
X1294013Y1510022D01*
X1295788Y1511797D01*
X1297042Y1513971D01*
X1297358Y1515150D01*
D02*
G37*
G36*
X1210570Y1572520D02*
X1179570D01*
Y1541520D01*
X1199872D01*
X1260573Y1480819D01*
X1262140Y1479617D01*
X1263964Y1478861D01*
X1265922Y1478603D01*
X1277206D01*
X1278158Y1476955D01*
X1280485Y1474628D01*
X1283335Y1472982D01*
X1286514Y1472130D01*
X1289806D01*
X1292985Y1472982D01*
X1295835Y1474628D01*
X1298163Y1476955D01*
X1299808Y1479805D01*
X1300660Y1482984D01*
Y1486276D01*
X1299808Y1489455D01*
X1298163Y1492305D01*
X1295835Y1494633D01*
X1292985Y1496278D01*
X1289806Y1497130D01*
X1286514D01*
X1283335Y1496278D01*
X1280485Y1494633D01*
X1279585Y1493733D01*
X1269055D01*
X1210570Y1552218D01*
Y1572520D01*
D02*
G37*
G36*
X1290660Y1468428D02*
Y1461730D01*
X1297358D01*
X1297042Y1462909D01*
X1295788Y1465083D01*
X1294013Y1466857D01*
X1291839Y1468112D01*
X1290660Y1468428D01*
D02*
G37*
G36*
X1285660D02*
X1284481Y1468112D01*
X1282307Y1466857D01*
X1280533Y1465083D01*
X1279278Y1462909D01*
X1278962Y1461730D01*
X1285660D01*
Y1468428D01*
D02*
G37*
G36*
Y1456730D02*
X1278962D01*
X1279278Y1455551D01*
X1280533Y1453377D01*
X1282307Y1451602D01*
X1284481Y1450348D01*
X1285660Y1450032D01*
Y1456730D01*
D02*
G37*
G36*
X1297358D02*
X1290660D01*
Y1450032D01*
X1291839Y1450348D01*
X1294013Y1451602D01*
X1295788Y1453377D01*
X1297042Y1455551D01*
X1297358Y1456730D01*
D02*
G37*
G36*
X1196597Y1521720D02*
X1193543D01*
X1190549Y1521124D01*
X1187728Y1519956D01*
X1185189Y1518260D01*
X1183030Y1516101D01*
X1181334Y1513562D01*
X1180166Y1510741D01*
X1179570Y1507747D01*
Y1504693D01*
X1180166Y1501699D01*
X1181334Y1498878D01*
X1183030Y1496339D01*
X1185189Y1494180D01*
X1187728Y1492484D01*
X1190549Y1491316D01*
X1193543Y1490720D01*
X1196597D01*
X1199591Y1491316D01*
X1202412Y1492484D01*
X1202625Y1492626D01*
X1265075Y1430175D01*
X1266518Y1429068D01*
X1268197Y1428373D01*
X1270000Y1428135D01*
X1277014D01*
X1278158Y1426155D01*
X1280485Y1423828D01*
X1283335Y1422182D01*
X1286514Y1421330D01*
X1289806D01*
X1292985Y1422182D01*
X1295835Y1423828D01*
X1298163Y1426155D01*
X1299808Y1429005D01*
X1300660Y1432184D01*
Y1435476D01*
X1299808Y1438655D01*
X1298163Y1441505D01*
X1295835Y1443833D01*
X1292985Y1445478D01*
X1289806Y1446330D01*
X1286514D01*
X1283335Y1445478D01*
X1280485Y1443833D01*
X1278717Y1442065D01*
X1272885D01*
X1210518Y1504431D01*
X1210570Y1504693D01*
Y1507747D01*
X1209974Y1510741D01*
X1208806Y1513562D01*
X1207110Y1516101D01*
X1204951Y1518260D01*
X1202412Y1519956D01*
X1199591Y1521124D01*
X1196597Y1521720D01*
D02*
G37*
G36*
X1290660Y1417628D02*
Y1410930D01*
X1297358D01*
X1297042Y1412109D01*
X1295788Y1414283D01*
X1294013Y1416057D01*
X1291839Y1417312D01*
X1290660Y1417628D01*
D02*
G37*
G36*
X1285660D02*
X1284481Y1417312D01*
X1282307Y1416057D01*
X1280533Y1414283D01*
X1279278Y1412109D01*
X1278962Y1410930D01*
X1285660D01*
Y1417628D01*
D02*
G37*
G36*
X1210570Y1470920D02*
X1179570D01*
Y1439920D01*
X1200721D01*
X1231157Y1409483D01*
X1230024Y1407788D01*
X1229372Y1408058D01*
X1227569Y1408295D01*
X1210143D01*
X1209974Y1409141D01*
X1208806Y1411962D01*
X1207110Y1414501D01*
X1204951Y1416660D01*
X1202412Y1418356D01*
X1199591Y1419524D01*
X1196597Y1420120D01*
X1193543D01*
X1190549Y1419524D01*
X1187728Y1418356D01*
X1185189Y1416660D01*
X1183030Y1414501D01*
X1181334Y1411962D01*
X1180166Y1409141D01*
X1179570Y1406147D01*
Y1403093D01*
X1180166Y1400099D01*
X1181334Y1397278D01*
X1183030Y1394739D01*
X1185189Y1392580D01*
X1187728Y1390884D01*
X1190549Y1389716D01*
X1193543Y1389120D01*
X1196597D01*
X1199591Y1389716D01*
X1202412Y1390884D01*
X1204951Y1392580D01*
X1206737Y1394366D01*
X1224684D01*
X1255415Y1363635D01*
Y1342390D01*
X1255653Y1340587D01*
X1256348Y1338908D01*
X1257455Y1337465D01*
X1275235Y1319685D01*
X1276678Y1318578D01*
X1278081Y1317997D01*
X1279427Y1315665D01*
X1281755Y1313338D01*
X1284605Y1311692D01*
X1287784Y1310840D01*
X1291076D01*
X1294255Y1311692D01*
X1297105Y1313338D01*
X1299433Y1315665D01*
X1301078Y1318515D01*
X1301930Y1321694D01*
Y1324986D01*
X1301078Y1328165D01*
X1299433Y1331015D01*
X1297105Y1333342D01*
X1294255Y1334988D01*
X1291076Y1335840D01*
X1287784D01*
X1284605Y1334988D01*
X1281755Y1333342D01*
X1281516Y1333103D01*
X1269345Y1345275D01*
Y1366520D01*
X1269107Y1368323D01*
X1268713Y1369273D01*
X1270356Y1370534D01*
X1270727Y1370250D01*
X1272406Y1369554D01*
X1274209Y1369317D01*
X1277782D01*
X1277782Y1369315D01*
X1279427Y1366465D01*
X1281755Y1364138D01*
X1284605Y1362492D01*
X1287784Y1361640D01*
X1291076D01*
X1294255Y1362492D01*
X1297105Y1364138D01*
X1299433Y1366465D01*
X1301078Y1369315D01*
X1301930Y1372494D01*
Y1375786D01*
X1301078Y1378965D01*
X1299433Y1381815D01*
X1297105Y1384142D01*
X1294255Y1385788D01*
X1291076Y1386640D01*
X1287784D01*
X1284605Y1385788D01*
X1281755Y1384142D01*
X1280858Y1383246D01*
X1277094D01*
X1210570Y1449769D01*
Y1470920D01*
D02*
G37*
G36*
X1285660Y1405930D02*
X1278962D01*
X1279278Y1404751D01*
X1280533Y1402577D01*
X1282307Y1400802D01*
X1284481Y1399548D01*
X1285660Y1399232D01*
Y1405930D01*
D02*
G37*
G36*
X1297358D02*
X1290660D01*
Y1399232D01*
X1291839Y1399548D01*
X1294013Y1400802D01*
X1295788Y1402577D01*
X1297042Y1404751D01*
X1297358Y1405930D01*
D02*
G37*
G36*
X1207602Y1366352D02*
X1197570D01*
Y1356320D01*
X1207602D01*
Y1366352D01*
D02*
G37*
G36*
X1192570D02*
X1182538D01*
Y1356320D01*
X1192570D01*
Y1366352D01*
D02*
G37*
G36*
X1291930Y1357938D02*
Y1351240D01*
X1298628D01*
X1298312Y1352419D01*
X1297057Y1354593D01*
X1295283Y1356367D01*
X1293109Y1357622D01*
X1291930Y1357938D01*
D02*
G37*
G36*
X1286930D02*
X1285751Y1357622D01*
X1283577Y1356367D01*
X1281803Y1354593D01*
X1280548Y1352419D01*
X1280232Y1351240D01*
X1286930D01*
Y1357938D01*
D02*
G37*
G36*
X1207602Y1351320D02*
X1197570D01*
Y1341288D01*
X1207602D01*
Y1351320D01*
D02*
G37*
G36*
X1192570D02*
X1182538D01*
Y1341288D01*
X1192570D01*
Y1351320D01*
D02*
G37*
G36*
X1286930Y1346240D02*
X1280232D01*
X1280548Y1345061D01*
X1281803Y1342887D01*
X1283577Y1341113D01*
X1285751Y1339858D01*
X1286930Y1339542D01*
Y1346240D01*
D02*
G37*
G36*
X1298628D02*
X1291930D01*
Y1339542D01*
X1293109Y1339858D01*
X1295283Y1341113D01*
X1297057Y1342887D01*
X1298312Y1345061D01*
X1298628Y1346240D01*
D02*
G37*
G36*
X1291930Y1307138D02*
Y1300440D01*
X1298628D01*
X1298312Y1301619D01*
X1297057Y1303793D01*
X1295283Y1305567D01*
X1293109Y1306822D01*
X1291930Y1307138D01*
D02*
G37*
G36*
X1286930D02*
X1285751Y1306822D01*
X1283577Y1305567D01*
X1281803Y1303793D01*
X1280548Y1301619D01*
X1280232Y1300440D01*
X1286930D01*
Y1307138D01*
D02*
G37*
G36*
Y1295440D02*
X1280232D01*
X1280548Y1294261D01*
X1281803Y1292087D01*
X1283577Y1290312D01*
X1285751Y1289058D01*
X1286930Y1288742D01*
Y1295440D01*
D02*
G37*
G36*
X1298628D02*
X1291930D01*
Y1288742D01*
X1293109Y1289058D01*
X1295283Y1290312D01*
X1297057Y1292087D01*
X1298312Y1294261D01*
X1298628Y1295440D01*
D02*
G37*
G36*
X1758782Y1805772D02*
X1748750D01*
Y1795740D01*
X1758782D01*
Y1805772D01*
D02*
G37*
G36*
X1743750D02*
X1733718D01*
Y1795740D01*
X1743750D01*
Y1805772D01*
D02*
G37*
G36*
X1758782Y1790740D02*
X1748750D01*
Y1780708D01*
X1758782D01*
Y1790740D01*
D02*
G37*
G36*
X1743750D02*
X1733718D01*
Y1780708D01*
X1743750D01*
Y1790740D01*
D02*
G37*
G36*
X1730970Y1636893D02*
Y1630640D01*
X1737223D01*
X1736952Y1631653D01*
X1735753Y1633729D01*
X1734059Y1635423D01*
X1731983Y1636622D01*
X1730970Y1636893D01*
D02*
G37*
G36*
X1725970D02*
X1724957Y1636622D01*
X1722881Y1635423D01*
X1721187Y1633729D01*
X1719988Y1631653D01*
X1719717Y1630640D01*
X1725970D01*
Y1636893D01*
D02*
G37*
G36*
X1737223Y1625640D02*
X1730970D01*
Y1619387D01*
X1731983Y1619658D01*
X1734059Y1620857D01*
X1735753Y1622551D01*
X1736952Y1624627D01*
X1737223Y1625640D01*
D02*
G37*
G36*
X1725970D02*
X1719717D01*
X1719988Y1624627D01*
X1721187Y1622551D01*
X1722881Y1620857D01*
X1724957Y1619658D01*
X1725970Y1619387D01*
Y1625640D01*
D02*
G37*
G36*
X1692870Y1713045D02*
Y1705570D01*
X1700345D01*
X1699951Y1707039D01*
X1698598Y1709383D01*
X1696683Y1711298D01*
X1694339Y1712651D01*
X1692870Y1713045D01*
D02*
G37*
G36*
X1687870D02*
X1686401Y1712651D01*
X1684057Y1711298D01*
X1682142Y1709383D01*
X1680789Y1707039D01*
X1680395Y1705570D01*
X1687870D01*
Y1713045D01*
D02*
G37*
G36*
X1700345Y1700570D02*
X1692870D01*
Y1693095D01*
X1694339Y1693489D01*
X1696683Y1694842D01*
X1698598Y1696757D01*
X1699951Y1699101D01*
X1700345Y1700570D01*
D02*
G37*
G36*
X1687870D02*
X1680395D01*
X1680789Y1699101D01*
X1682142Y1696757D01*
X1684057Y1694842D01*
X1686401Y1693489D01*
X1687870Y1693095D01*
Y1700570D01*
D02*
G37*
G36*
X1730970Y1560693D02*
Y1554440D01*
X1737223D01*
X1736952Y1555453D01*
X1735753Y1557529D01*
X1734059Y1559223D01*
X1731983Y1560422D01*
X1730970Y1560693D01*
D02*
G37*
G36*
X1725970D02*
X1724957Y1560422D01*
X1722881Y1559223D01*
X1721187Y1557529D01*
X1719988Y1555453D01*
X1719717Y1554440D01*
X1725970D01*
Y1560693D01*
D02*
G37*
G36*
X1737223Y1549440D02*
X1730970D01*
Y1543187D01*
X1731983Y1543458D01*
X1734059Y1544657D01*
X1735753Y1546351D01*
X1736952Y1548427D01*
X1737223Y1549440D01*
D02*
G37*
G36*
X1725970D02*
X1719717D01*
X1719988Y1548427D01*
X1721187Y1546351D01*
X1722881Y1544657D01*
X1724957Y1543458D01*
X1725970Y1543187D01*
Y1549440D01*
D02*
G37*
G36*
X1703580Y1538327D02*
X1701436Y1537752D01*
X1698692Y1536168D01*
X1696452Y1533928D01*
X1694868Y1531184D01*
X1694293Y1529040D01*
X1703580D01*
Y1538327D01*
D02*
G37*
G36*
X1708580D02*
Y1526540D01*
X1706080D01*
Y1524040D01*
X1694293D01*
X1694868Y1521896D01*
X1696452Y1519152D01*
X1698692Y1516912D01*
X1701436Y1515328D01*
X1703760Y1514705D01*
Y1512635D01*
X1702706Y1512352D01*
X1699962Y1510768D01*
X1697722Y1508528D01*
X1696138Y1505784D01*
X1695563Y1503640D01*
X1707350D01*
Y1501140D01*
X1709850D01*
Y1489353D01*
X1711994Y1489928D01*
X1714738Y1491512D01*
X1716978Y1493752D01*
X1718562Y1496496D01*
X1718703Y1497023D01*
X1720821Y1497200D01*
X1721593Y1495863D01*
X1723193Y1494263D01*
X1725153Y1493132D01*
X1727339Y1492546D01*
X1729601D01*
X1731787Y1493132D01*
X1733747Y1494263D01*
X1735347Y1495863D01*
X1736478Y1497823D01*
X1737064Y1500009D01*
Y1502271D01*
X1736478Y1504457D01*
X1735347Y1506417D01*
X1733747Y1508017D01*
X1731787Y1509148D01*
X1729601Y1509734D01*
X1727339D01*
X1725153Y1509148D01*
X1723193Y1508017D01*
X1721593Y1506417D01*
X1720821Y1505080D01*
X1718703Y1505257D01*
X1718562Y1505784D01*
X1716978Y1508528D01*
X1714738Y1510768D01*
X1711994Y1512352D01*
X1709670Y1512975D01*
Y1515045D01*
X1710724Y1515328D01*
X1713468Y1516912D01*
X1715708Y1519152D01*
X1717292Y1521896D01*
X1718019Y1524610D01*
X1719037Y1524875D01*
X1720042Y1524788D01*
X1720462Y1523223D01*
X1721593Y1521263D01*
X1723193Y1519663D01*
X1725153Y1518532D01*
X1727339Y1517946D01*
X1729601D01*
X1731787Y1518532D01*
X1733747Y1519663D01*
X1735347Y1521263D01*
X1736478Y1523223D01*
X1737064Y1525409D01*
Y1527671D01*
X1736478Y1529857D01*
X1735347Y1531817D01*
X1733747Y1533417D01*
X1731787Y1534548D01*
X1729601Y1535134D01*
X1727339D01*
X1725153Y1534548D01*
X1723193Y1533417D01*
X1721593Y1531817D01*
X1720462Y1529857D01*
X1720042Y1528292D01*
X1719037Y1528205D01*
X1718019Y1528470D01*
X1717292Y1531184D01*
X1715708Y1533928D01*
X1713468Y1536168D01*
X1710724Y1537752D01*
X1708580Y1538327D01*
D02*
G37*
G36*
X1704850Y1498640D02*
X1695563D01*
X1696138Y1496496D01*
X1697722Y1493752D01*
X1699962Y1491512D01*
X1702706Y1489928D01*
X1704850Y1489353D01*
Y1498640D01*
D02*
G37*
G36*
X1729601Y1484334D02*
X1727339D01*
X1725153Y1483748D01*
X1723193Y1482617D01*
X1721593Y1481017D01*
X1720462Y1479057D01*
X1719876Y1476871D01*
Y1474609D01*
X1720462Y1472423D01*
X1721593Y1470463D01*
X1723193Y1468863D01*
X1725153Y1467732D01*
X1727339Y1467146D01*
X1729601D01*
X1731787Y1467732D01*
X1733747Y1468863D01*
X1735347Y1470463D01*
X1736478Y1472423D01*
X1737064Y1474609D01*
Y1476871D01*
X1736478Y1479057D01*
X1735347Y1481017D01*
X1733747Y1482617D01*
X1731787Y1483748D01*
X1729601Y1484334D01*
D02*
G37*
G36*
X1699220Y1461327D02*
Y1452040D01*
X1708507D01*
X1707932Y1454184D01*
X1706348Y1456928D01*
X1704108Y1459168D01*
X1701364Y1460752D01*
X1699220Y1461327D01*
D02*
G37*
G36*
X1694220D02*
X1692076Y1460752D01*
X1689332Y1459168D01*
X1687092Y1456928D01*
X1685508Y1454184D01*
X1684933Y1452040D01*
X1694220D01*
Y1461327D01*
D02*
G37*
G36*
X1729601Y1458934D02*
X1727339D01*
X1725153Y1458348D01*
X1723193Y1457217D01*
X1721593Y1455617D01*
X1720462Y1453657D01*
X1719876Y1451471D01*
Y1449209D01*
X1720462Y1447023D01*
X1721593Y1445063D01*
X1723193Y1443463D01*
X1725153Y1442332D01*
X1727339Y1441746D01*
X1729601D01*
X1731787Y1442332D01*
X1733747Y1443463D01*
X1735347Y1445063D01*
X1736478Y1447023D01*
X1737064Y1449209D01*
Y1451471D01*
X1736478Y1453657D01*
X1735347Y1455617D01*
X1733747Y1457217D01*
X1731787Y1458348D01*
X1729601Y1458934D01*
D02*
G37*
G36*
X1708507Y1447040D02*
X1699220D01*
Y1437753D01*
X1701364Y1438328D01*
X1703610Y1439625D01*
X1704108Y1439912D01*
X1706348Y1442152D01*
X1707932Y1444896D01*
X1708507Y1447040D01*
D02*
G37*
G36*
X1694220D02*
X1684933D01*
X1685508Y1444896D01*
X1687092Y1442152D01*
X1689332Y1439912D01*
X1692076Y1438328D01*
X1694220Y1437753D01*
Y1447040D01*
D02*
G37*
G36*
X1473032Y1184742D02*
X1463000D01*
Y1174710D01*
X1473032D01*
Y1184742D01*
D02*
G37*
G36*
X1458000D02*
X1447968D01*
Y1174710D01*
X1458000D01*
Y1184742D01*
D02*
G37*
G36*
X1473032Y1169710D02*
X1463000D01*
Y1159678D01*
X1473032D01*
Y1169710D01*
D02*
G37*
G36*
X1458000D02*
X1447968D01*
Y1159678D01*
X1458000D01*
Y1169710D01*
D02*
G37*
%LPD*%
D10*
X1840000Y1510665D02*
G03*
X1840000Y1510665I-10000J0D01*
G01*
X1100000D02*
G03*
X1100000Y1510665I-10000J0D01*
G01*
X1470500Y1960000D02*
G03*
X1470500Y1960000I-10000J0D01*
G01*
Y1060000D02*
G03*
X1470500Y1060000I-10000J0D01*
G01*
X1140000D02*
G03*
X1140000Y1060000I-10000J0D01*
G01*
Y1960000D02*
G03*
X1140000Y1960000I-10000J0D01*
G01*
X1800000Y1060000D02*
G03*
X1800000Y1060000I-10000J0D01*
G01*
Y1960000D02*
G03*
X1800000Y1960000I-10000J0D01*
G01*
X1100000Y1110000D02*
G03*
X1100000Y1110000I-10000J0D01*
G01*
X1840000D02*
G03*
X1840000Y1110000I-10000J0D01*
G01*
Y1910000D02*
G03*
X1840000Y1910000I-10000J0D01*
G01*
X1100000D02*
G03*
X1100000Y1910000I-10000J0D01*
G01*
X1450500Y1061250D02*
X1470500D01*
X1460500Y1051250D02*
Y1071250D01*
Y1950080D02*
Y1970080D01*
X1450500Y1960080D02*
X1470500D01*
X1120000Y1960000D02*
X1140000D01*
X1130000Y1950000D02*
Y1970000D01*
X1080000Y1910000D02*
X1100000D01*
X1090000Y1900000D02*
Y1920000D01*
X1080000Y1510665D02*
X1100000D01*
X1090000Y1500665D02*
Y1520665D01*
X1080000Y1110000D02*
X1100000D01*
X1090000Y1100000D02*
Y1120000D01*
X1120000Y1060000D02*
X1140000D01*
X1130000Y1050000D02*
Y1070000D01*
X1780000Y1060000D02*
X1800000D01*
X1790000Y1050000D02*
Y1070000D01*
X1820000Y1110000D02*
X1840000D01*
X1830000Y1100000D02*
Y1120000D01*
X1820000Y1510665D02*
X1840000D01*
X1830000Y1500665D02*
Y1520665D01*
X1820000Y1910000D02*
X1840000D01*
X1830000Y1900000D02*
Y1920000D01*
X1780000Y1960000D02*
X1800000D01*
X1790000Y1950000D02*
Y1970000D01*
D19*
X1762760Y1348740D02*
D03*
D20*
Y1374140D02*
D03*
D23*
X1728470Y1628140D02*
D03*
Y1602740D02*
D03*
Y1577340D02*
D03*
Y1551940D02*
D03*
Y1526540D02*
D03*
Y1501140D02*
D03*
Y1475740D02*
D03*
Y1450340D02*
D03*
Y1424940D02*
D03*
Y1399540D02*
D03*
Y1374140D02*
D03*
Y1348740D02*
D03*
Y1323340D02*
D03*
Y1297940D02*
D03*
Y1272540D02*
D03*
X1576070D02*
D03*
Y1297940D02*
D03*
Y1323340D02*
D03*
Y1348740D02*
D03*
Y1374140D02*
D03*
Y1399540D02*
D03*
Y1424940D02*
D03*
Y1450340D02*
D03*
Y1475740D02*
D03*
Y1501140D02*
D03*
Y1526540D02*
D03*
Y1551940D02*
D03*
Y1577340D02*
D03*
Y1602740D02*
D03*
D24*
Y1628140D02*
D03*
D27*
X1460500Y1172210D02*
D03*
X1746250Y1793240D02*
D03*
X1358900Y1172210D02*
D03*
D28*
X1511300D02*
D03*
X1195070Y1506220D02*
D03*
Y1607820D02*
D03*
X1695450Y1793240D02*
D03*
X1409700Y1172210D02*
D03*
X1195070Y1303020D02*
D03*
Y1404620D02*
D03*
Y1709420D02*
D03*
D29*
Y1557020D02*
D03*
Y1658620D02*
D03*
Y1353820D02*
D03*
Y1455420D02*
D03*
Y1760220D02*
D03*
D30*
X1513840Y1703540D02*
D03*
Y1603540D02*
D03*
X1540510D02*
D03*
Y1703540D02*
D03*
X1707350Y1501140D02*
D03*
X1607350D02*
D03*
X1706080Y1526540D02*
D03*
X1606080D02*
D03*
X1696720Y1349540D02*
D03*
Y1449540D02*
D03*
X1547330Y1297940D02*
D03*
X1447330D02*
D03*
X1547330Y1323340D02*
D03*
X1447330D02*
D03*
X1547330Y1348740D02*
D03*
X1447330D02*
D03*
X1547330Y1374140D02*
D03*
X1447330D02*
D03*
X1547330Y1399540D02*
D03*
X1447330D02*
D03*
X1547330Y1424940D02*
D03*
X1447330D02*
D03*
X1547330Y1450340D02*
D03*
X1447330D02*
D03*
X1547330Y1475740D02*
D03*
X1447330D02*
D03*
D31*
X1715770Y1703070D02*
D03*
X1690370D02*
D03*
X1664970D02*
D03*
X1639570D02*
D03*
X1614170D02*
D03*
D32*
X1588770D02*
D03*
D33*
X1289430Y1374140D02*
D03*
Y1348740D02*
D03*
Y1323340D02*
D03*
Y1297940D02*
D03*
X1375030Y1374140D02*
D03*
Y1348740D02*
D03*
Y1323340D02*
D03*
X1288160Y1484630D02*
D03*
Y1459230D02*
D03*
Y1433830D02*
D03*
Y1408430D02*
D03*
X1373760Y1484630D02*
D03*
Y1459230D02*
D03*
Y1433830D02*
D03*
X1288160Y1593850D02*
D03*
Y1568450D02*
D03*
Y1543050D02*
D03*
Y1517650D02*
D03*
X1373760Y1593850D02*
D03*
Y1568450D02*
D03*
Y1543050D02*
D03*
X1288160Y1701800D02*
D03*
Y1676400D02*
D03*
Y1651000D02*
D03*
Y1625600D02*
D03*
X1373760Y1701800D02*
D03*
Y1676400D02*
D03*
Y1651000D02*
D03*
D34*
X1375030Y1297940D02*
D03*
X1373760Y1408430D02*
D03*
Y1517650D02*
D03*
Y1625600D02*
D03*
D35*
X1697120Y1349140D02*
X1728470D01*
X1696720Y1349540D02*
X1697120Y1349140D01*
X1728470D02*
X1762360D01*
X1762760Y1348740D01*
X1445260Y1477810D02*
X1447330Y1475740D01*
X1445260Y1477810D02*
Y1604900D01*
X1373760Y1676400D02*
X1445260Y1604900D01*
X1373760Y1624924D02*
Y1625600D01*
Y1624924D02*
X1424940Y1573743D01*
Y1461770D02*
Y1573743D01*
Y1461770D02*
X1433500Y1453210D01*
X1444460D01*
X1447330Y1450340D01*
X1444460Y1427810D02*
X1447330Y1424940D01*
X1434412Y1427810D02*
X1444460D01*
X1413510Y1448712D02*
X1434412Y1427810D01*
X1413510Y1448712D02*
Y1525994D01*
X1373760Y1565744D02*
X1413510Y1525994D01*
X1373760Y1565744D02*
Y1568450D01*
X1444460Y1402410D02*
X1447330Y1399540D01*
X1430960Y1402410D02*
X1444460D01*
X1403350Y1430020D02*
X1430960Y1402410D01*
X1403350Y1430020D02*
Y1487384D01*
X1373760Y1516974D02*
X1403350Y1487384D01*
X1373760Y1516974D02*
Y1517650D01*
X1444460Y1377010D02*
X1447330Y1374140D01*
X1432230Y1377010D02*
X1444460D01*
X1391920Y1417320D02*
X1432230Y1377010D01*
X1391920Y1417320D02*
Y1442720D01*
X1375410Y1459230D02*
X1391920Y1442720D01*
X1373760Y1459230D02*
X1375410D01*
X1444460Y1351610D02*
X1447330Y1348740D01*
X1431256Y1351610D02*
X1444460D01*
X1374436Y1408430D02*
X1431256Y1351610D01*
X1373760Y1408430D02*
X1374436D01*
X1444460Y1326210D02*
X1447330Y1323340D01*
X1400266Y1326210D02*
X1444460D01*
X1377736Y1348740D02*
X1400266Y1326210D01*
X1375030Y1348740D02*
X1377736D01*
X1375030Y1297940D02*
X1447330D01*
X1288160Y1701800D02*
Y1715946D01*
X1242616Y1761490D02*
X1288160Y1715946D01*
X1196340Y1761490D02*
X1242616D01*
X1195070Y1760220D02*
X1196340Y1761490D01*
X1286514Y1595496D02*
X1288160Y1593850D01*
X1258194Y1595496D02*
X1286514D01*
X1195070Y1658620D02*
X1258194Y1595496D01*
X1286247Y1544963D02*
X1288160Y1543050D01*
X1262256Y1544963D02*
X1286247D01*
X1199400Y1607820D02*
X1262256Y1544963D01*
X1195070Y1607820D02*
X1199400D01*
X1286622Y1486168D02*
X1288160Y1484630D01*
X1265922Y1486168D02*
X1286622D01*
X1195070Y1557020D02*
X1265922Y1486168D01*
X1579246Y1668863D02*
X1601553D01*
X1576070Y1628140D02*
X1577340Y1629410D01*
X1541310Y1602740D02*
X1576070D01*
X1540510Y1603540D02*
X1541310Y1602740D01*
X1547330Y1399540D02*
X1576070D01*
X1547330Y1424940D02*
X1576070D01*
X1547330Y1475740D02*
X1576070D01*
X1547330Y1450340D02*
X1576070D01*
X1547330Y1297940D02*
X1576070D01*
X1547330Y1323340D02*
X1576070D01*
X1547330Y1348740D02*
X1576070D01*
X1547330Y1374140D02*
X1576070D01*
X1577340Y1629410D02*
X1588770D01*
X1639570Y1680210D01*
X1513840Y1703540D02*
X1544569D01*
X1611970Y1679280D02*
Y1700870D01*
X1639570Y1680210D02*
Y1703070D01*
X1611970Y1700870D02*
X1614170Y1703070D01*
X1544569Y1703540D02*
X1579246Y1668863D01*
X1601553D02*
X1611970Y1679280D01*
D36*
X1513840Y1299210D02*
Y1485813D01*
X1452880Y1254760D02*
X1469390D01*
X1513840Y1299210D01*
X1463040Y1263650D02*
X1499870Y1300480D01*
X1446530Y1263650D02*
X1463040D01*
X1367495Y1184615D02*
X1446530Y1263650D01*
X1358900Y1172210D02*
X1367495Y1180805D01*
Y1184615D01*
X1499870Y1300480D02*
Y1492250D01*
X1412989Y1214869D02*
X1452880Y1254760D01*
X1499870Y1492250D02*
X1534160Y1526540D01*
X1513840Y1485813D02*
X1527190Y1499163D01*
X1534160Y1526540D02*
X1576070D01*
X1574093Y1499163D02*
X1576070Y1501140D01*
X1527190Y1499163D02*
X1574093D01*
X1412989Y1175499D02*
Y1214869D01*
X1409700Y1172210D02*
X1412989Y1175499D01*
X1576070Y1501140D02*
X1607350D01*
X1576070Y1526540D02*
X1606080D01*
X1253490Y1651000D02*
X1288160D01*
X1195070Y1709420D02*
X1253490Y1651000D01*
X1286890Y1435100D02*
X1288160Y1433830D01*
X1270000Y1435100D02*
X1286890D01*
X1198880Y1506220D02*
X1270000Y1435100D01*
X1195070Y1506220D02*
X1198880D01*
X1287289Y1376281D02*
X1289430Y1374140D01*
X1274209Y1376281D02*
X1287289D01*
X1195070Y1455420D02*
X1274209Y1376281D01*
X1288160Y1324610D02*
X1289430Y1323340D01*
X1280160Y1324610D02*
X1288160D01*
X1262380Y1342390D02*
X1280160Y1324610D01*
X1262380Y1342390D02*
Y1366520D01*
X1227569Y1401331D02*
X1262380Y1366520D01*
X1198359Y1401331D02*
X1227569D01*
X1195070Y1404620D02*
X1198359Y1401331D01*
M02*
