G04*
G04 #@! TF.GenerationSoftware,Altium Limited,Altium Designer,25.2.1 (25)*
G04*
G04 Layer_Color=65280*
%FSLAX44Y44*%
%MOMM*%
G71*
G04*
G04 #@! TF.SameCoordinates,1C064638-B53A-42AB-B659-0CA3A7FDC49E*
G04*
G04*
G04 #@! TF.FilePolarity,Positive*
G04*
G01*
G75*
%ADD10C,0.0100*%
%ADD14C,0.2540*%
D10*
X1840000Y1910000D02*
G03*
X1840000Y1910000I-10000J0D01*
G01*
Y1510665D02*
G03*
X1840000Y1510665I-10000J0D01*
G01*
Y1110000D02*
G03*
X1840000Y1110000I-10000J0D01*
G01*
X1800000Y1060000D02*
G03*
X1800000Y1060000I-10000J0D01*
G01*
X1470500D02*
G03*
X1470500Y1060000I-10000J0D01*
G01*
X1140000D02*
G03*
X1140000Y1060000I-10000J0D01*
G01*
X1100000Y1910000D02*
G03*
X1100000Y1910000I-10000J0D01*
G01*
Y1510665D02*
G03*
X1100000Y1510665I-10000J0D01*
G01*
Y1110000D02*
G03*
X1100000Y1110000I-10000J0D01*
G01*
X1800000Y1960000D02*
G03*
X1800000Y1960000I-10000J0D01*
G01*
X1140000D02*
G03*
X1140000Y1960000I-10000J0D01*
G01*
X1470500D02*
G03*
X1470500Y1960000I-10000J0D01*
G01*
X1830000Y1500665D02*
Y1520665D01*
X1820000Y1510665D02*
X1840000D01*
X1830000Y1900000D02*
Y1920000D01*
X1820000Y1910000D02*
X1840000D01*
X1830000Y1100000D02*
Y1120000D01*
X1820000Y1110000D02*
X1840000D01*
X1790000Y1050000D02*
Y1070000D01*
X1780000Y1060000D02*
X1800000D01*
X1450500Y1061250D02*
X1470500D01*
X1460500Y1051250D02*
Y1071250D01*
X1130000Y1050000D02*
Y1070000D01*
X1120000Y1060000D02*
X1140000D01*
X1090000Y1900000D02*
Y1920000D01*
X1080000Y1910000D02*
X1100000D01*
X1090000Y1500665D02*
Y1520665D01*
X1080000Y1510665D02*
X1100000D01*
X1090000Y1100000D02*
Y1120000D01*
X1080000Y1110000D02*
X1100000D01*
X1780000Y1960000D02*
X1800000D01*
X1790000Y1950000D02*
Y1970000D01*
X1450500Y1960080D02*
X1470500D01*
X1460500Y1950080D02*
Y1970080D01*
X1130000Y1950000D02*
Y1970000D01*
X1120000Y1960000D02*
X1140000D01*
D14*
X1774190Y1111250D02*
G03*
X1786890Y1123950I0J12700D01*
G01*
Y1897380D02*
G03*
X1774190Y1910080I-12700J0D01*
G01*
X1134110Y1121250D02*
G03*
X1144110Y1111250I10000J0D01*
G01*
X1764030Y1111250D02*
X1774190D01*
X1786890Y1123950D02*
Y1405890D01*
Y1897380D01*
X1704340Y1910080D02*
X1774190D01*
X1704340D02*
X1705610D01*
X1295400D02*
X1776730D01*
X1155700D02*
X1295400D01*
X1134110Y1888490D02*
X1134110Y1121250D01*
X1144270Y1111250D02*
X1776890Y1111250D01*
X1134110Y1888490D02*
X1155700Y1910080D01*
M02*
