G04*
G04 #@! TF.GenerationSoftware,Altium Limited,Altium Designer,25.2.1 (25)*
G04*
G04 Layer_Physical_Order=1*
G04 Layer_Color=255*
%FSLAX44Y44*%
%MOMM*%
G71*
G04*
G04 #@! TF.SameCoordinates,1C064638-B53A-42AB-B659-0CA3A7FDC49E*
G04*
G04*
G04 #@! TF.FilePolarity,Positive*
G04*
G01*
G75*
%ADD10C,0.0100*%
%ADD19C,1.1500*%
%ADD20R,1.1500X1.1500*%
%ADD23C,1.4140*%
%ADD24R,1.4140X1.4140*%
%ADD27R,2.1000X2.1000*%
%ADD28C,2.1000*%
%ADD29R,2.1000X2.1000*%
%ADD30C,2.0000*%
%ADD31C,1.6500*%
%ADD32R,1.6500X1.6500*%
%ADD33C,1.5000*%
G04:AMPARAMS|DCode=34|XSize=1.5mm|YSize=1.5mm|CornerRadius=0.375mm|HoleSize=0mm|Usage=FLASHONLY|Rotation=90.000|XOffset=0mm|YOffset=0mm|HoleType=Round|Shape=RoundedRectangle|*
%AMROUNDEDRECTD34*
21,1,1.5000,0.7500,0,0,90.0*
21,1,0.7500,1.5000,0,0,90.0*
1,1,0.7500,0.3750,0.3750*
1,1,0.7500,0.3750,-0.3750*
1,1,0.7500,-0.3750,-0.3750*
1,1,0.7500,-0.3750,0.3750*
%
%ADD34ROUNDEDRECTD34*%
D10*
X1100000Y1910000D02*
G03*
X1100000Y1910000I-10000J0D01*
G01*
Y1510665D02*
G03*
X1100000Y1510665I-10000J0D01*
G01*
Y1110000D02*
G03*
X1100000Y1110000I-10000J0D01*
G01*
X1800000Y1960000D02*
G03*
X1800000Y1960000I-10000J0D01*
G01*
X1470500D02*
G03*
X1470500Y1960000I-10000J0D01*
G01*
X1140000D02*
G03*
X1140000Y1960000I-10000J0D01*
G01*
X1840000Y1510665D02*
G03*
X1840000Y1510665I-10000J0D01*
G01*
Y1910000D02*
G03*
X1840000Y1910000I-10000J0D01*
G01*
Y1110000D02*
G03*
X1840000Y1110000I-10000J0D01*
G01*
X1800000Y1060000D02*
G03*
X1800000Y1060000I-10000J0D01*
G01*
X1470500D02*
G03*
X1470500Y1060000I-10000J0D01*
G01*
X1140000D02*
G03*
X1140000Y1060000I-10000J0D01*
G01*
X1090000Y1900000D02*
Y1920000D01*
X1080000Y1910000D02*
X1100000D01*
X1090000Y1500665D02*
Y1520665D01*
X1080000Y1510665D02*
X1100000D01*
X1090000Y1100000D02*
Y1120000D01*
X1080000Y1110000D02*
X1100000D01*
X1790000Y1950000D02*
Y1970000D01*
X1780000Y1960000D02*
X1800000D01*
X1450500Y1960080D02*
X1470500D01*
X1130000Y1950000D02*
Y1970000D01*
X1120000Y1960000D02*
X1140000D01*
X1460500Y1950080D02*
Y1970080D01*
X1820000Y1510665D02*
X1840000D01*
X1830000Y1500665D02*
Y1520665D01*
Y1900000D02*
Y1920000D01*
X1820000Y1910000D02*
X1840000D01*
X1820000Y1110000D02*
X1840000D01*
X1830000Y1100000D02*
Y1120000D01*
X1790000Y1050000D02*
Y1070000D01*
X1780000Y1060000D02*
X1800000D01*
X1460500Y1051250D02*
Y1071250D01*
X1450500Y1061250D02*
X1470500D01*
X1130000Y1050000D02*
Y1070000D01*
X1120000Y1060000D02*
X1140000D01*
D19*
X1762760Y1348740D02*
D03*
D20*
Y1374140D02*
D03*
D23*
X1728470Y1628140D02*
D03*
Y1602740D02*
D03*
Y1577340D02*
D03*
Y1551940D02*
D03*
Y1526540D02*
D03*
Y1501140D02*
D03*
Y1475740D02*
D03*
Y1450340D02*
D03*
Y1424940D02*
D03*
Y1399540D02*
D03*
Y1374140D02*
D03*
Y1348740D02*
D03*
Y1323340D02*
D03*
Y1297940D02*
D03*
Y1272540D02*
D03*
X1576070D02*
D03*
Y1297940D02*
D03*
Y1323340D02*
D03*
Y1348740D02*
D03*
Y1374140D02*
D03*
Y1399540D02*
D03*
Y1424940D02*
D03*
Y1450340D02*
D03*
Y1475740D02*
D03*
Y1501140D02*
D03*
Y1526540D02*
D03*
Y1551940D02*
D03*
Y1577340D02*
D03*
Y1602740D02*
D03*
D24*
Y1628140D02*
D03*
D27*
X1460500Y1172210D02*
D03*
X1746250Y1793240D02*
D03*
X1358900Y1172210D02*
D03*
D28*
X1511300D02*
D03*
X1195070Y1506220D02*
D03*
Y1607820D02*
D03*
X1695450Y1793240D02*
D03*
X1409700Y1172210D02*
D03*
X1195070Y1303020D02*
D03*
Y1404620D02*
D03*
Y1709420D02*
D03*
D29*
Y1557020D02*
D03*
Y1658620D02*
D03*
Y1353820D02*
D03*
Y1455420D02*
D03*
Y1760220D02*
D03*
D30*
X1513840Y1703540D02*
D03*
Y1603540D02*
D03*
X1540510D02*
D03*
Y1703540D02*
D03*
X1707350Y1501140D02*
D03*
X1607350D02*
D03*
X1706080Y1526540D02*
D03*
X1606080D02*
D03*
X1696720Y1349540D02*
D03*
Y1449540D02*
D03*
X1547330Y1297940D02*
D03*
X1447330D02*
D03*
X1547330Y1323340D02*
D03*
X1447330D02*
D03*
X1547330Y1348740D02*
D03*
X1447330D02*
D03*
X1547330Y1374140D02*
D03*
X1447330D02*
D03*
X1547330Y1399540D02*
D03*
X1447330D02*
D03*
X1547330Y1424940D02*
D03*
X1447330D02*
D03*
X1547330Y1450340D02*
D03*
X1447330D02*
D03*
X1547330Y1475740D02*
D03*
X1447330D02*
D03*
D31*
X1715770Y1703070D02*
D03*
X1690370D02*
D03*
X1664970D02*
D03*
X1639570D02*
D03*
X1614170D02*
D03*
D32*
X1588770D02*
D03*
D33*
X1289430Y1374140D02*
D03*
Y1348740D02*
D03*
Y1323340D02*
D03*
Y1297940D02*
D03*
X1375030Y1374140D02*
D03*
Y1348740D02*
D03*
Y1323340D02*
D03*
X1288160Y1484630D02*
D03*
Y1459230D02*
D03*
Y1433830D02*
D03*
Y1408430D02*
D03*
X1373760Y1484630D02*
D03*
Y1459230D02*
D03*
Y1433830D02*
D03*
X1288160Y1593850D02*
D03*
Y1568450D02*
D03*
Y1543050D02*
D03*
Y1517650D02*
D03*
X1373760Y1593850D02*
D03*
Y1568450D02*
D03*
Y1543050D02*
D03*
X1288160Y1701800D02*
D03*
Y1676400D02*
D03*
Y1651000D02*
D03*
Y1625600D02*
D03*
X1373760Y1701800D02*
D03*
Y1676400D02*
D03*
Y1651000D02*
D03*
D34*
X1375030Y1297940D02*
D03*
X1373760Y1408430D02*
D03*
Y1517650D02*
D03*
Y1625600D02*
D03*
M02*
