G04*
G04 #@! TF.GenerationSoftware,Altium Limited,Altium Designer,25.2.1 (25)*
G04*
G04 Layer_Color=128*
%FSLAX44Y44*%
%MOMM*%
G71*
G04*
G04 #@! TF.SameCoordinates,1C064638-B53A-42AB-B659-0CA3A7FDC49E*
G04*
G04*
G04 #@! TF.FilePolarity,Positive*
G04*
G01*
G75*
%ADD10C,0.0100*%
%ADD40C,0.1270*%
D10*
X1100000Y1110000D02*
G03*
X1100000Y1110000I-10000J0D01*
G01*
X1140000Y1060000D02*
G03*
X1140000Y1060000I-10000J0D01*
G01*
Y1960000D02*
G03*
X1140000Y1960000I-10000J0D01*
G01*
X1100000Y1910000D02*
G03*
X1100000Y1910000I-10000J0D01*
G01*
Y1510665D02*
G03*
X1100000Y1510665I-10000J0D01*
G01*
X1800000Y1060000D02*
G03*
X1800000Y1060000I-10000J0D01*
G01*
X1470500D02*
G03*
X1470500Y1060000I-10000J0D01*
G01*
X1840000Y1110000D02*
G03*
X1840000Y1110000I-10000J0D01*
G01*
Y1910000D02*
G03*
X1840000Y1910000I-10000J0D01*
G01*
Y1510665D02*
G03*
X1840000Y1510665I-10000J0D01*
G01*
X1470500Y1960000D02*
G03*
X1470500Y1960000I-10000J0D01*
G01*
X1800000D02*
G03*
X1800000Y1960000I-10000J0D01*
G01*
X1090000Y1100000D02*
Y1120000D01*
X1080000Y1110000D02*
X1100000D01*
X1130000Y1050000D02*
Y1070000D01*
X1120000Y1060000D02*
X1140000D01*
X1130000Y1950000D02*
Y1970000D01*
X1120000Y1960000D02*
X1140000D01*
X1090000Y1900000D02*
Y1920000D01*
X1080000Y1910000D02*
X1100000D01*
X1090000Y1500665D02*
Y1520665D01*
X1080000Y1510665D02*
X1100000D01*
X1790000Y1050000D02*
Y1070000D01*
X1780000Y1060000D02*
X1800000D01*
X1450500Y1061250D02*
X1470500D01*
X1460500Y1051250D02*
Y1071250D01*
X1830000Y1100000D02*
Y1120000D01*
X1820000Y1110000D02*
X1840000D01*
X1830000Y1500665D02*
Y1520665D01*
X1820000Y1510665D02*
X1840000D01*
X1830000Y1900000D02*
Y1920000D01*
X1820000Y1910000D02*
X1840000D01*
X1450500Y1960080D02*
X1470500D01*
X1460500Y1950080D02*
Y1970080D01*
X1780000Y1960000D02*
X1800000D01*
X1790000Y1950000D02*
Y1970000D01*
D40*
X1453500Y1172210D02*
X1467500D01*
X1460500Y1165210D02*
Y1179210D01*
X1504300Y1172210D02*
X1518300D01*
X1511300Y1165210D02*
Y1179210D01*
X1188070Y1557020D02*
X1202070D01*
X1195070Y1550020D02*
Y1564020D01*
X1188070Y1506220D02*
X1202070D01*
X1195070Y1499220D02*
Y1513220D01*
X1188070Y1658620D02*
X1202070D01*
X1195070Y1651620D02*
Y1665620D01*
X1188070Y1607820D02*
X1202070D01*
X1195070Y1600820D02*
Y1614820D01*
X1739250Y1793240D02*
X1753250D01*
X1746250Y1786240D02*
Y1800240D01*
X1688450Y1793240D02*
X1702450D01*
X1695450Y1786240D02*
Y1800240D01*
X1509590Y1703540D02*
X1518090D01*
X1513840Y1699290D02*
Y1707790D01*
X1509590Y1603540D02*
X1518090D01*
X1513840Y1599290D02*
Y1607790D01*
X1536260Y1603540D02*
X1544760D01*
X1540510Y1599290D02*
Y1607790D01*
X1536260Y1703540D02*
X1544760D01*
X1540510Y1699290D02*
Y1707790D01*
X1759510Y1348740D02*
X1766010D01*
X1762760Y1345490D02*
Y1351990D01*
X1759510Y1374140D02*
X1766010D01*
X1762760Y1370890D02*
Y1377390D01*
X1710270Y1703070D02*
X1721270D01*
X1715770Y1697570D02*
Y1708570D01*
X1684870Y1703070D02*
X1695870D01*
X1690370Y1697570D02*
Y1708570D01*
X1659470Y1703070D02*
X1670470D01*
X1664970Y1697570D02*
Y1708570D01*
X1634070Y1703070D02*
X1645070D01*
X1639570Y1697570D02*
Y1708570D01*
X1608670Y1703070D02*
X1619670D01*
X1614170Y1697570D02*
Y1708570D01*
X1583270Y1703070D02*
X1594270D01*
X1588770Y1697570D02*
Y1708570D01*
X1723900Y1628140D02*
X1733040D01*
X1728470Y1623570D02*
Y1632710D01*
X1723900Y1602740D02*
X1733040D01*
X1728470Y1598170D02*
Y1607310D01*
X1723900Y1577340D02*
X1733040D01*
X1728470Y1572770D02*
Y1581910D01*
X1723900Y1551940D02*
X1733040D01*
X1728470Y1547370D02*
Y1556510D01*
X1723900Y1526540D02*
X1733040D01*
X1728470Y1521970D02*
Y1531110D01*
X1723900Y1501140D02*
X1733040D01*
X1728470Y1496570D02*
Y1505710D01*
X1723900Y1475740D02*
X1733040D01*
X1728470Y1471170D02*
Y1480310D01*
X1723900Y1450340D02*
X1733040D01*
X1728470Y1445770D02*
Y1454910D01*
X1723900Y1424940D02*
X1733040D01*
X1728470Y1420370D02*
Y1429510D01*
X1723900Y1399540D02*
X1733040D01*
X1728470Y1394970D02*
Y1404110D01*
X1723900Y1374140D02*
X1733040D01*
X1728470Y1369570D02*
Y1378710D01*
X1723900Y1348740D02*
X1733040D01*
X1728470Y1344170D02*
Y1353310D01*
X1723900Y1323340D02*
X1733040D01*
X1728470Y1318770D02*
Y1327910D01*
X1723900Y1297940D02*
X1733040D01*
X1728470Y1293370D02*
Y1302510D01*
X1723900Y1272540D02*
X1733040D01*
X1728470Y1267970D02*
Y1277110D01*
X1571500Y1272540D02*
X1580640D01*
X1576070Y1267970D02*
Y1277110D01*
X1571500Y1297940D02*
X1580640D01*
X1576070Y1293370D02*
Y1302510D01*
X1571500Y1323340D02*
X1580640D01*
X1576070Y1318770D02*
Y1327910D01*
X1571500Y1348740D02*
X1580640D01*
X1576070Y1344170D02*
Y1353310D01*
X1571500Y1374140D02*
X1580640D01*
X1576070Y1369570D02*
Y1378710D01*
X1571500Y1399540D02*
X1580640D01*
X1576070Y1394970D02*
Y1404110D01*
X1571500Y1424940D02*
X1580640D01*
X1576070Y1420370D02*
Y1429510D01*
X1571500Y1450340D02*
X1580640D01*
X1576070Y1445770D02*
Y1454910D01*
X1571500Y1475740D02*
X1580640D01*
X1576070Y1471170D02*
Y1480310D01*
X1571500Y1501140D02*
X1580640D01*
X1576070Y1496570D02*
Y1505710D01*
X1571500Y1526540D02*
X1580640D01*
X1576070Y1521970D02*
Y1531110D01*
X1571500Y1551940D02*
X1580640D01*
X1576070Y1547370D02*
Y1556510D01*
X1571500Y1577340D02*
X1580640D01*
X1576070Y1572770D02*
Y1581910D01*
X1571500Y1602740D02*
X1580640D01*
X1576070Y1598170D02*
Y1607310D01*
X1571500Y1628140D02*
X1580640D01*
X1576070Y1623570D02*
Y1632710D01*
X1703100Y1501140D02*
X1711600D01*
X1707350Y1496890D02*
Y1505390D01*
X1603100Y1501140D02*
X1611600D01*
X1607350Y1496890D02*
Y1505390D01*
X1701830Y1526540D02*
X1710330D01*
X1706080Y1522290D02*
Y1530790D01*
X1601830Y1526540D02*
X1610330D01*
X1606080Y1522290D02*
Y1530790D01*
X1692470Y1349540D02*
X1700970D01*
X1696720Y1345290D02*
Y1353790D01*
X1692470Y1449540D02*
X1700970D01*
X1696720Y1445290D02*
Y1453790D01*
X1351900Y1172210D02*
X1365900D01*
X1358900Y1165210D02*
Y1179210D01*
X1402700Y1172210D02*
X1416700D01*
X1409700Y1165210D02*
Y1179210D01*
X1543080Y1297940D02*
X1551580D01*
X1547330Y1293690D02*
Y1302190D01*
X1443080Y1297940D02*
X1451580D01*
X1447330Y1293690D02*
Y1302190D01*
X1543080Y1323340D02*
X1551580D01*
X1547330Y1319090D02*
Y1327590D01*
X1443080Y1323340D02*
X1451580D01*
X1447330Y1319090D02*
Y1327590D01*
X1543080Y1348740D02*
X1551580D01*
X1547330Y1344490D02*
Y1352990D01*
X1443080Y1348740D02*
X1451580D01*
X1447330Y1344490D02*
Y1352990D01*
X1543080Y1374140D02*
X1551580D01*
X1547330Y1369890D02*
Y1378390D01*
X1443080Y1374140D02*
X1451580D01*
X1447330Y1369890D02*
Y1378390D01*
X1543080Y1399540D02*
X1551580D01*
X1547330Y1395290D02*
Y1403790D01*
X1443080Y1399540D02*
X1451580D01*
X1447330Y1395290D02*
Y1403790D01*
X1543080Y1424940D02*
X1551580D01*
X1547330Y1420690D02*
Y1429190D01*
X1443080Y1424940D02*
X1451580D01*
X1447330Y1420690D02*
Y1429190D01*
X1543080Y1450340D02*
X1551580D01*
X1547330Y1446090D02*
Y1454590D01*
X1443080Y1450340D02*
X1451580D01*
X1447330Y1446090D02*
Y1454590D01*
X1543080Y1475740D02*
X1551580D01*
X1547330Y1471490D02*
Y1479990D01*
X1443080Y1475740D02*
X1451580D01*
X1447330Y1471490D02*
Y1479990D01*
X1284430Y1374140D02*
X1294430D01*
X1289430Y1369140D02*
Y1379140D01*
X1284430Y1348740D02*
X1294430D01*
X1289430Y1343740D02*
Y1353740D01*
X1284430Y1323340D02*
X1294430D01*
X1289430Y1318340D02*
Y1328340D01*
X1284430Y1297940D02*
X1294430D01*
X1289430Y1292940D02*
Y1302940D01*
X1370030Y1374140D02*
X1380030D01*
X1375030Y1369140D02*
Y1379140D01*
X1370030Y1348740D02*
X1380030D01*
X1375030Y1343740D02*
Y1353740D01*
X1370030Y1323340D02*
X1380030D01*
X1375030Y1318340D02*
Y1328340D01*
X1370030Y1297940D02*
X1380030D01*
X1375030Y1292940D02*
Y1302940D01*
X1283160Y1484630D02*
X1293160D01*
X1288160Y1479630D02*
Y1489630D01*
X1283160Y1459230D02*
X1293160D01*
X1288160Y1454230D02*
Y1464230D01*
X1283160Y1433830D02*
X1293160D01*
X1288160Y1428830D02*
Y1438830D01*
X1283160Y1408430D02*
X1293160D01*
X1288160Y1403430D02*
Y1413430D01*
X1368760Y1484630D02*
X1378760D01*
X1373760Y1479630D02*
Y1489630D01*
X1368760Y1459230D02*
X1378760D01*
X1373760Y1454230D02*
Y1464230D01*
X1368760Y1433830D02*
X1378760D01*
X1373760Y1428830D02*
Y1438830D01*
X1368760Y1408430D02*
X1378760D01*
X1373760Y1403430D02*
Y1413430D01*
X1283160Y1593850D02*
X1293160D01*
X1288160Y1588850D02*
Y1598850D01*
X1283160Y1568450D02*
X1293160D01*
X1288160Y1563450D02*
Y1573450D01*
X1283160Y1543050D02*
X1293160D01*
X1288160Y1538050D02*
Y1548050D01*
X1283160Y1517650D02*
X1293160D01*
X1288160Y1512650D02*
Y1522650D01*
X1368760Y1593850D02*
X1378760D01*
X1373760Y1588850D02*
Y1598850D01*
X1368760Y1568450D02*
X1378760D01*
X1373760Y1563450D02*
Y1573450D01*
X1368760Y1543050D02*
X1378760D01*
X1373760Y1538050D02*
Y1548050D01*
X1368760Y1517650D02*
X1378760D01*
X1373760Y1512650D02*
Y1522650D01*
X1283160Y1701800D02*
X1293160D01*
X1288160Y1696800D02*
Y1706800D01*
X1283160Y1676400D02*
X1293160D01*
X1288160Y1671400D02*
Y1681400D01*
X1283160Y1651000D02*
X1293160D01*
X1288160Y1646000D02*
Y1656000D01*
X1283160Y1625600D02*
X1293160D01*
X1288160Y1620600D02*
Y1630600D01*
X1368760Y1701800D02*
X1378760D01*
X1373760Y1696800D02*
Y1706800D01*
X1368760Y1676400D02*
X1378760D01*
X1373760Y1671400D02*
Y1681400D01*
X1368760Y1651000D02*
X1378760D01*
X1373760Y1646000D02*
Y1656000D01*
X1368760Y1625600D02*
X1378760D01*
X1373760Y1620600D02*
Y1630600D01*
X1188070Y1353820D02*
X1202070D01*
X1195070Y1346820D02*
Y1360820D01*
X1188070Y1303020D02*
X1202070D01*
X1195070Y1296020D02*
Y1310020D01*
X1188070Y1455420D02*
X1202070D01*
X1195070Y1448420D02*
Y1462420D01*
X1188070Y1404620D02*
X1202070D01*
X1195070Y1397620D02*
Y1411620D01*
X1188070Y1760220D02*
X1202070D01*
X1195070Y1753220D02*
Y1767220D01*
X1188070Y1709420D02*
X1202070D01*
X1195070Y1702420D02*
Y1716420D01*
M02*
