G04*
G04 #@! TF.GenerationSoftware,Altium Limited,Altium Designer,25.2.1 (25)*
G04*
G04 Layer_Color=2752767*
%FSLAX44Y44*%
%MOMM*%
G71*
G04*
G04 #@! TF.SameCoordinates,1C064638-B53A-42AB-B659-0CA3A7FDC49E*
G04*
G04*
G04 #@! TF.FilePolarity,Positive*
G04*
G01*
G75*
%ADD10C,0.0100*%
%ADD40C,0.1270*%
%ADD41C,0.1693*%
%ADD42C,0.1016*%
D10*
X1840000Y1910000D02*
G03*
X1840000Y1910000I-10000J0D01*
G01*
Y1510665D02*
G03*
X1840000Y1510665I-10000J0D01*
G01*
X1800000Y1960000D02*
G03*
X1800000Y1960000I-10000J0D01*
G01*
X1470500D02*
G03*
X1470500Y1960000I-10000J0D01*
G01*
X1140000D02*
G03*
X1140000Y1960000I-10000J0D01*
G01*
X1100000Y1910000D02*
G03*
X1100000Y1910000I-10000J0D01*
G01*
Y1510665D02*
G03*
X1100000Y1510665I-10000J0D01*
G01*
X1840000Y1110000D02*
G03*
X1840000Y1110000I-10000J0D01*
G01*
X1100000D02*
G03*
X1100000Y1110000I-10000J0D01*
G01*
X1470500Y1060000D02*
G03*
X1470500Y1060000I-10000J0D01*
G01*
X1800000D02*
G03*
X1800000Y1060000I-10000J0D01*
G01*
X1140000D02*
G03*
X1140000Y1060000I-10000J0D01*
G01*
X1820000Y1910000D02*
X1840000D01*
X1830000Y1900000D02*
Y1920000D01*
X1820000Y1510665D02*
X1840000D01*
X1830000Y1500665D02*
Y1520665D01*
X1790000Y1950000D02*
Y1970000D01*
X1780000Y1960000D02*
X1800000D01*
X1460500Y1950080D02*
Y1970080D01*
X1450500Y1960080D02*
X1470500D01*
X1130000Y1950000D02*
Y1970000D01*
X1120000Y1960000D02*
X1140000D01*
X1080000Y1910000D02*
X1100000D01*
X1090000Y1900000D02*
Y1920000D01*
Y1500665D02*
Y1520665D01*
X1080000Y1510665D02*
X1100000D01*
X1820000Y1110000D02*
X1840000D01*
X1830000Y1100000D02*
Y1120000D01*
X1080000Y1110000D02*
X1100000D01*
X1090000Y1100000D02*
Y1120000D01*
X1460500Y1051250D02*
Y1071250D01*
X1450500Y1061250D02*
X1470500D01*
X1120000Y1060000D02*
X1140000D01*
X1130000Y1050000D02*
Y1070000D01*
X1790000Y1050000D02*
Y1070000D01*
X1780000Y1060000D02*
X1800000D01*
D40*
X1460500Y1167130D02*
X1455420Y1177290D01*
X1465580D01*
X1460500Y1167130D01*
X1511300D02*
X1506220Y1177290D01*
X1516380D01*
X1511300Y1167130D01*
X1195070Y1551940D02*
X1189990Y1562100D01*
X1200150D01*
X1195070Y1551940D01*
Y1501140D02*
X1189990Y1511300D01*
X1200150D01*
X1195070Y1501140D01*
Y1653540D02*
X1189990Y1663700D01*
X1200150D01*
X1195070Y1653540D01*
Y1602740D02*
X1189990Y1612900D01*
X1200150D01*
X1195070Y1602740D01*
X1746250Y1788160D02*
X1741170Y1798320D01*
X1751330D01*
X1746250Y1788160D01*
X1695450D02*
X1690370Y1798320D01*
X1700530D01*
X1695450Y1788160D01*
X1710690Y1697990D02*
X1713230Y1703070D01*
X1710690Y1708150D01*
X1715770Y1705610D01*
X1720850Y1708150D01*
X1718310Y1703070D01*
X1720850Y1697990D01*
X1715770Y1700530D01*
X1710690Y1697990D01*
X1685290D02*
X1687830Y1703070D01*
X1685290Y1708150D01*
X1690370Y1705610D01*
X1695450Y1708150D01*
X1692910Y1703070D01*
X1695450Y1697990D01*
X1690370Y1700530D01*
X1685290Y1697990D01*
X1659890D02*
X1662430Y1703070D01*
X1659890Y1708150D01*
X1664970Y1705610D01*
X1670050Y1708150D01*
X1667510Y1703070D01*
X1670050Y1697990D01*
X1664970Y1700530D01*
X1659890Y1697990D01*
X1634490D02*
X1637030Y1703070D01*
X1634490Y1708150D01*
X1639570Y1705610D01*
X1644650Y1708150D01*
X1642110Y1703070D01*
X1644650Y1697990D01*
X1639570Y1700530D01*
X1634490Y1697990D01*
X1609090D02*
X1611630Y1703070D01*
X1609090Y1708150D01*
X1614170Y1705610D01*
X1619250Y1708150D01*
X1616710Y1703070D01*
X1619250Y1697990D01*
X1614170Y1700530D01*
X1609090Y1697990D01*
X1583690D02*
X1586230Y1703070D01*
X1583690Y1708150D01*
X1588770Y1705610D01*
X1593850Y1708150D01*
X1591310Y1703070D01*
X1593850Y1697990D01*
X1588770Y1700530D01*
X1583690Y1697990D01*
X1728470Y1623060D02*
X1731010Y1625600D01*
X1733550D01*
X1731010Y1628140D01*
X1733550Y1630680D01*
X1731010D01*
X1728470Y1633220D01*
X1725930Y1630680D01*
X1723390D01*
X1725930Y1628140D01*
X1723390Y1625600D01*
X1725930D01*
X1728470Y1623060D01*
Y1597660D02*
X1731010Y1600200D01*
X1733550D01*
X1731010Y1602740D01*
X1733550Y1605280D01*
X1731010D01*
X1728470Y1607820D01*
X1725930Y1605280D01*
X1723390D01*
X1725930Y1602740D01*
X1723390Y1600200D01*
X1725930D01*
X1728470Y1597660D01*
Y1572260D02*
X1731010Y1574800D01*
X1733550D01*
X1731010Y1577340D01*
X1733550Y1579880D01*
X1731010D01*
X1728470Y1582420D01*
X1725930Y1579880D01*
X1723390D01*
X1725930Y1577340D01*
X1723390Y1574800D01*
X1725930D01*
X1728470Y1572260D01*
Y1546860D02*
X1731010Y1549400D01*
X1733550D01*
X1731010Y1551940D01*
X1733550Y1554480D01*
X1731010D01*
X1728470Y1557020D01*
X1725930Y1554480D01*
X1723390D01*
X1725930Y1551940D01*
X1723390Y1549400D01*
X1725930D01*
X1728470Y1546860D01*
Y1521460D02*
X1731010Y1524000D01*
X1733550D01*
X1731010Y1526540D01*
X1733550Y1529080D01*
X1731010D01*
X1728470Y1531620D01*
X1725930Y1529080D01*
X1723390D01*
X1725930Y1526540D01*
X1723390Y1524000D01*
X1725930D01*
X1728470Y1521460D01*
Y1496060D02*
X1731010Y1498600D01*
X1733550D01*
X1731010Y1501140D01*
X1733550Y1503680D01*
X1731010D01*
X1728470Y1506220D01*
X1725930Y1503680D01*
X1723390D01*
X1725930Y1501140D01*
X1723390Y1498600D01*
X1725930D01*
X1728470Y1496060D01*
Y1470660D02*
X1731010Y1473200D01*
X1733550D01*
X1731010Y1475740D01*
X1733550Y1478280D01*
X1731010D01*
X1728470Y1480820D01*
X1725930Y1478280D01*
X1723390D01*
X1725930Y1475740D01*
X1723390Y1473200D01*
X1725930D01*
X1728470Y1470660D01*
Y1445260D02*
X1731010Y1447800D01*
X1733550D01*
X1731010Y1450340D01*
X1733550Y1452880D01*
X1731010D01*
X1728470Y1455420D01*
X1725930Y1452880D01*
X1723390D01*
X1725930Y1450340D01*
X1723390Y1447800D01*
X1725930D01*
X1728470Y1445260D01*
Y1419860D02*
X1731010Y1422400D01*
X1733550D01*
X1731010Y1424940D01*
X1733550Y1427480D01*
X1731010D01*
X1728470Y1430020D01*
X1725930Y1427480D01*
X1723390D01*
X1725930Y1424940D01*
X1723390Y1422400D01*
X1725930D01*
X1728470Y1419860D01*
Y1394460D02*
X1731010Y1397000D01*
X1733550D01*
X1731010Y1399540D01*
X1733550Y1402080D01*
X1731010D01*
X1728470Y1404620D01*
X1725930Y1402080D01*
X1723390D01*
X1725930Y1399540D01*
X1723390Y1397000D01*
X1725930D01*
X1728470Y1394460D01*
Y1369060D02*
X1731010Y1371600D01*
X1733550D01*
X1731010Y1374140D01*
X1733550Y1376680D01*
X1731010D01*
X1728470Y1379220D01*
X1725930Y1376680D01*
X1723390D01*
X1725930Y1374140D01*
X1723390Y1371600D01*
X1725930D01*
X1728470Y1369060D01*
Y1343660D02*
X1731010Y1346200D01*
X1733550D01*
X1731010Y1348740D01*
X1733550Y1351280D01*
X1731010D01*
X1728470Y1353820D01*
X1725930Y1351280D01*
X1723390D01*
X1725930Y1348740D01*
X1723390Y1346200D01*
X1725930D01*
X1728470Y1343660D01*
Y1318260D02*
X1731010Y1320800D01*
X1733550D01*
X1731010Y1323340D01*
X1733550Y1325880D01*
X1731010D01*
X1728470Y1328420D01*
X1725930Y1325880D01*
X1723390D01*
X1725930Y1323340D01*
X1723390Y1320800D01*
X1725930D01*
X1728470Y1318260D01*
Y1292860D02*
X1731010Y1295400D01*
X1733550D01*
X1731010Y1297940D01*
X1733550Y1300480D01*
X1731010D01*
X1728470Y1303020D01*
X1725930Y1300480D01*
X1723390D01*
X1725930Y1297940D01*
X1723390Y1295400D01*
X1725930D01*
X1728470Y1292860D01*
Y1267460D02*
X1731010Y1270000D01*
X1733550D01*
X1731010Y1272540D01*
X1733550Y1275080D01*
X1731010D01*
X1728470Y1277620D01*
X1725930Y1275080D01*
X1723390D01*
X1725930Y1272540D01*
X1723390Y1270000D01*
X1725930D01*
X1728470Y1267460D01*
X1576070D02*
X1578610Y1270000D01*
X1581150D01*
X1578610Y1272540D01*
X1581150Y1275080D01*
X1578610D01*
X1576070Y1277620D01*
X1573530Y1275080D01*
X1570990D01*
X1573530Y1272540D01*
X1570990Y1270000D01*
X1573530D01*
X1576070Y1267460D01*
Y1292860D02*
X1578610Y1295400D01*
X1581150D01*
X1578610Y1297940D01*
X1581150Y1300480D01*
X1578610D01*
X1576070Y1303020D01*
X1573530Y1300480D01*
X1570990D01*
X1573530Y1297940D01*
X1570990Y1295400D01*
X1573530D01*
X1576070Y1292860D01*
Y1318260D02*
X1578610Y1320800D01*
X1581150D01*
X1578610Y1323340D01*
X1581150Y1325880D01*
X1578610D01*
X1576070Y1328420D01*
X1573530Y1325880D01*
X1570990D01*
X1573530Y1323340D01*
X1570990Y1320800D01*
X1573530D01*
X1576070Y1318260D01*
Y1343660D02*
X1578610Y1346200D01*
X1581150D01*
X1578610Y1348740D01*
X1581150Y1351280D01*
X1578610D01*
X1576070Y1353820D01*
X1573530Y1351280D01*
X1570990D01*
X1573530Y1348740D01*
X1570990Y1346200D01*
X1573530D01*
X1576070Y1343660D01*
Y1369060D02*
X1578610Y1371600D01*
X1581150D01*
X1578610Y1374140D01*
X1581150Y1376680D01*
X1578610D01*
X1576070Y1379220D01*
X1573530Y1376680D01*
X1570990D01*
X1573530Y1374140D01*
X1570990Y1371600D01*
X1573530D01*
X1576070Y1369060D01*
Y1394460D02*
X1578610Y1397000D01*
X1581150D01*
X1578610Y1399540D01*
X1581150Y1402080D01*
X1578610D01*
X1576070Y1404620D01*
X1573530Y1402080D01*
X1570990D01*
X1573530Y1399540D01*
X1570990Y1397000D01*
X1573530D01*
X1576070Y1394460D01*
Y1419860D02*
X1578610Y1422400D01*
X1581150D01*
X1578610Y1424940D01*
X1581150Y1427480D01*
X1578610D01*
X1576070Y1430020D01*
X1573530Y1427480D01*
X1570990D01*
X1573530Y1424940D01*
X1570990Y1422400D01*
X1573530D01*
X1576070Y1419860D01*
Y1445260D02*
X1578610Y1447800D01*
X1581150D01*
X1578610Y1450340D01*
X1581150Y1452880D01*
X1578610D01*
X1576070Y1455420D01*
X1573530Y1452880D01*
X1570990D01*
X1573530Y1450340D01*
X1570990Y1447800D01*
X1573530D01*
X1576070Y1445260D01*
Y1470660D02*
X1578610Y1473200D01*
X1581150D01*
X1578610Y1475740D01*
X1581150Y1478280D01*
X1578610D01*
X1576070Y1480820D01*
X1573530Y1478280D01*
X1570990D01*
X1573530Y1475740D01*
X1570990Y1473200D01*
X1573530D01*
X1576070Y1470660D01*
Y1496060D02*
X1578610Y1498600D01*
X1581150D01*
X1578610Y1501140D01*
X1581150Y1503680D01*
X1578610D01*
X1576070Y1506220D01*
X1573530Y1503680D01*
X1570990D01*
X1573530Y1501140D01*
X1570990Y1498600D01*
X1573530D01*
X1576070Y1496060D01*
Y1521460D02*
X1578610Y1524000D01*
X1581150D01*
X1578610Y1526540D01*
X1581150Y1529080D01*
X1578610D01*
X1576070Y1531620D01*
X1573530Y1529080D01*
X1570990D01*
X1573530Y1526540D01*
X1570990Y1524000D01*
X1573530D01*
X1576070Y1521460D01*
Y1546860D02*
X1578610Y1549400D01*
X1581150D01*
X1578610Y1551940D01*
X1581150Y1554480D01*
X1578610D01*
X1576070Y1557020D01*
X1573530Y1554480D01*
X1570990D01*
X1573530Y1551940D01*
X1570990Y1549400D01*
X1573530D01*
X1576070Y1546860D01*
Y1572260D02*
X1578610Y1574800D01*
X1581150D01*
X1578610Y1577340D01*
X1581150Y1579880D01*
X1578610D01*
X1576070Y1582420D01*
X1573530Y1579880D01*
X1570990D01*
X1573530Y1577340D01*
X1570990Y1574800D01*
X1573530D01*
X1576070Y1572260D01*
Y1597660D02*
X1578610Y1600200D01*
X1581150D01*
X1578610Y1602740D01*
X1581150Y1605280D01*
X1578610D01*
X1576070Y1607820D01*
X1573530Y1605280D01*
X1570990D01*
X1573530Y1602740D01*
X1570990Y1600200D01*
X1573530D01*
X1576070Y1597660D01*
Y1623060D02*
X1578610Y1625600D01*
X1581150D01*
X1578610Y1628140D01*
X1581150Y1630680D01*
X1578610D01*
X1576070Y1633220D01*
X1573530Y1630680D01*
X1570990D01*
X1573530Y1628140D01*
X1570990Y1625600D01*
X1573530D01*
X1576070Y1623060D01*
X1358900Y1167130D02*
X1353820Y1177290D01*
X1363980D01*
X1358900Y1167130D01*
X1409700D02*
X1404620Y1177290D01*
X1414780D01*
X1409700Y1167130D01*
X1284350Y1369060D02*
X1286890D01*
X1289430Y1371600D01*
X1291970Y1369060D01*
X1294510D01*
Y1371600D01*
X1291970Y1374140D01*
X1294510Y1376680D01*
Y1379220D01*
X1291970D01*
X1289430Y1376680D01*
X1286890Y1379220D01*
X1284350D01*
Y1376680D01*
X1286890Y1374140D01*
X1284350Y1371600D01*
Y1369060D01*
Y1343660D02*
X1286890D01*
X1289430Y1346200D01*
X1291970Y1343660D01*
X1294510D01*
Y1346200D01*
X1291970Y1348740D01*
X1294510Y1351280D01*
Y1353820D01*
X1291970D01*
X1289430Y1351280D01*
X1286890Y1353820D01*
X1284350D01*
Y1351280D01*
X1286890Y1348740D01*
X1284350Y1346200D01*
Y1343660D01*
Y1318260D02*
X1286890D01*
X1289430Y1320800D01*
X1291970Y1318260D01*
X1294510D01*
Y1320800D01*
X1291970Y1323340D01*
X1294510Y1325880D01*
Y1328420D01*
X1291970D01*
X1289430Y1325880D01*
X1286890Y1328420D01*
X1284350D01*
Y1325880D01*
X1286890Y1323340D01*
X1284350Y1320800D01*
Y1318260D01*
Y1292860D02*
X1286890D01*
X1289430Y1295400D01*
X1291970Y1292860D01*
X1294510D01*
Y1295400D01*
X1291970Y1297940D01*
X1294510Y1300480D01*
Y1303020D01*
X1291970D01*
X1289430Y1300480D01*
X1286890Y1303020D01*
X1284350D01*
Y1300480D01*
X1286890Y1297940D01*
X1284350Y1295400D01*
Y1292860D01*
X1369950Y1369060D02*
X1372490D01*
X1375030Y1371600D01*
X1377570Y1369060D01*
X1380110D01*
Y1371600D01*
X1377570Y1374140D01*
X1380110Y1376680D01*
Y1379220D01*
X1377570D01*
X1375030Y1376680D01*
X1372490Y1379220D01*
X1369950D01*
Y1376680D01*
X1372490Y1374140D01*
X1369950Y1371600D01*
Y1369060D01*
Y1343660D02*
X1372490D01*
X1375030Y1346200D01*
X1377570Y1343660D01*
X1380110D01*
Y1346200D01*
X1377570Y1348740D01*
X1380110Y1351280D01*
Y1353820D01*
X1377570D01*
X1375030Y1351280D01*
X1372490Y1353820D01*
X1369950D01*
Y1351280D01*
X1372490Y1348740D01*
X1369950Y1346200D01*
Y1343660D01*
Y1318260D02*
X1372490D01*
X1375030Y1320800D01*
X1377570Y1318260D01*
X1380110D01*
Y1320800D01*
X1377570Y1323340D01*
X1380110Y1325880D01*
Y1328420D01*
X1377570D01*
X1375030Y1325880D01*
X1372490Y1328420D01*
X1369950D01*
Y1325880D01*
X1372490Y1323340D01*
X1369950Y1320800D01*
Y1318260D01*
Y1292860D02*
X1372490D01*
X1375030Y1295400D01*
X1377570Y1292860D01*
X1380110D01*
Y1295400D01*
X1377570Y1297940D01*
X1380110Y1300480D01*
Y1303020D01*
X1377570D01*
X1375030Y1300480D01*
X1372490Y1303020D01*
X1369950D01*
Y1300480D01*
X1372490Y1297940D01*
X1369950Y1295400D01*
Y1292860D01*
X1283080Y1479550D02*
X1285620D01*
X1288160Y1482090D01*
X1290700Y1479550D01*
X1293240D01*
Y1482090D01*
X1290700Y1484630D01*
X1293240Y1487170D01*
Y1489710D01*
X1290700D01*
X1288160Y1487170D01*
X1285620Y1489710D01*
X1283080D01*
Y1487170D01*
X1285620Y1484630D01*
X1283080Y1482090D01*
Y1479550D01*
Y1454150D02*
X1285620D01*
X1288160Y1456690D01*
X1290700Y1454150D01*
X1293240D01*
Y1456690D01*
X1290700Y1459230D01*
X1293240Y1461770D01*
Y1464310D01*
X1290700D01*
X1288160Y1461770D01*
X1285620Y1464310D01*
X1283080D01*
Y1461770D01*
X1285620Y1459230D01*
X1283080Y1456690D01*
Y1454150D01*
Y1428750D02*
X1285620D01*
X1288160Y1431290D01*
X1290700Y1428750D01*
X1293240D01*
Y1431290D01*
X1290700Y1433830D01*
X1293240Y1436370D01*
Y1438910D01*
X1290700D01*
X1288160Y1436370D01*
X1285620Y1438910D01*
X1283080D01*
Y1436370D01*
X1285620Y1433830D01*
X1283080Y1431290D01*
Y1428750D01*
Y1403350D02*
X1285620D01*
X1288160Y1405890D01*
X1290700Y1403350D01*
X1293240D01*
Y1405890D01*
X1290700Y1408430D01*
X1293240Y1410970D01*
Y1413510D01*
X1290700D01*
X1288160Y1410970D01*
X1285620Y1413510D01*
X1283080D01*
Y1410970D01*
X1285620Y1408430D01*
X1283080Y1405890D01*
Y1403350D01*
X1368680Y1479550D02*
X1371220D01*
X1373760Y1482090D01*
X1376300Y1479550D01*
X1378840D01*
Y1482090D01*
X1376300Y1484630D01*
X1378840Y1487170D01*
Y1489710D01*
X1376300D01*
X1373760Y1487170D01*
X1371220Y1489710D01*
X1368680D01*
Y1487170D01*
X1371220Y1484630D01*
X1368680Y1482090D01*
Y1479550D01*
Y1454150D02*
X1371220D01*
X1373760Y1456690D01*
X1376300Y1454150D01*
X1378840D01*
Y1456690D01*
X1376300Y1459230D01*
X1378840Y1461770D01*
Y1464310D01*
X1376300D01*
X1373760Y1461770D01*
X1371220Y1464310D01*
X1368680D01*
Y1461770D01*
X1371220Y1459230D01*
X1368680Y1456690D01*
Y1454150D01*
Y1428750D02*
X1371220D01*
X1373760Y1431290D01*
X1376300Y1428750D01*
X1378840D01*
Y1431290D01*
X1376300Y1433830D01*
X1378840Y1436370D01*
Y1438910D01*
X1376300D01*
X1373760Y1436370D01*
X1371220Y1438910D01*
X1368680D01*
Y1436370D01*
X1371220Y1433830D01*
X1368680Y1431290D01*
Y1428750D01*
Y1403350D02*
X1371220D01*
X1373760Y1405890D01*
X1376300Y1403350D01*
X1378840D01*
Y1405890D01*
X1376300Y1408430D01*
X1378840Y1410970D01*
Y1413510D01*
X1376300D01*
X1373760Y1410970D01*
X1371220Y1413510D01*
X1368680D01*
Y1410970D01*
X1371220Y1408430D01*
X1368680Y1405890D01*
Y1403350D01*
X1283080Y1588770D02*
X1285620D01*
X1288160Y1591310D01*
X1290700Y1588770D01*
X1293240D01*
Y1591310D01*
X1290700Y1593850D01*
X1293240Y1596390D01*
Y1598930D01*
X1290700D01*
X1288160Y1596390D01*
X1285620Y1598930D01*
X1283080D01*
Y1596390D01*
X1285620Y1593850D01*
X1283080Y1591310D01*
Y1588770D01*
Y1563370D02*
X1285620D01*
X1288160Y1565910D01*
X1290700Y1563370D01*
X1293240D01*
Y1565910D01*
X1290700Y1568450D01*
X1293240Y1570990D01*
Y1573530D01*
X1290700D01*
X1288160Y1570990D01*
X1285620Y1573530D01*
X1283080D01*
Y1570990D01*
X1285620Y1568450D01*
X1283080Y1565910D01*
Y1563370D01*
Y1537970D02*
X1285620D01*
X1288160Y1540510D01*
X1290700Y1537970D01*
X1293240D01*
Y1540510D01*
X1290700Y1543050D01*
X1293240Y1545590D01*
Y1548130D01*
X1290700D01*
X1288160Y1545590D01*
X1285620Y1548130D01*
X1283080D01*
Y1545590D01*
X1285620Y1543050D01*
X1283080Y1540510D01*
Y1537970D01*
Y1512570D02*
X1285620D01*
X1288160Y1515110D01*
X1290700Y1512570D01*
X1293240D01*
Y1515110D01*
X1290700Y1517650D01*
X1293240Y1520190D01*
Y1522730D01*
X1290700D01*
X1288160Y1520190D01*
X1285620Y1522730D01*
X1283080D01*
Y1520190D01*
X1285620Y1517650D01*
X1283080Y1515110D01*
Y1512570D01*
X1368680Y1588770D02*
X1371220D01*
X1373760Y1591310D01*
X1376300Y1588770D01*
X1378840D01*
Y1591310D01*
X1376300Y1593850D01*
X1378840Y1596390D01*
Y1598930D01*
X1376300D01*
X1373760Y1596390D01*
X1371220Y1598930D01*
X1368680D01*
Y1596390D01*
X1371220Y1593850D01*
X1368680Y1591310D01*
Y1588770D01*
Y1563370D02*
X1371220D01*
X1373760Y1565910D01*
X1376300Y1563370D01*
X1378840D01*
Y1565910D01*
X1376300Y1568450D01*
X1378840Y1570990D01*
Y1573530D01*
X1376300D01*
X1373760Y1570990D01*
X1371220Y1573530D01*
X1368680D01*
Y1570990D01*
X1371220Y1568450D01*
X1368680Y1565910D01*
Y1563370D01*
Y1537970D02*
X1371220D01*
X1373760Y1540510D01*
X1376300Y1537970D01*
X1378840D01*
Y1540510D01*
X1376300Y1543050D01*
X1378840Y1545590D01*
Y1548130D01*
X1376300D01*
X1373760Y1545590D01*
X1371220Y1548130D01*
X1368680D01*
Y1545590D01*
X1371220Y1543050D01*
X1368680Y1540510D01*
Y1537970D01*
Y1512570D02*
X1371220D01*
X1373760Y1515110D01*
X1376300Y1512570D01*
X1378840D01*
Y1515110D01*
X1376300Y1517650D01*
X1378840Y1520190D01*
Y1522730D01*
X1376300D01*
X1373760Y1520190D01*
X1371220Y1522730D01*
X1368680D01*
Y1520190D01*
X1371220Y1517650D01*
X1368680Y1515110D01*
Y1512570D01*
X1283080Y1696720D02*
X1285620D01*
X1288160Y1699260D01*
X1290700Y1696720D01*
X1293240D01*
Y1699260D01*
X1290700Y1701800D01*
X1293240Y1704340D01*
Y1706880D01*
X1290700D01*
X1288160Y1704340D01*
X1285620Y1706880D01*
X1283080D01*
Y1704340D01*
X1285620Y1701800D01*
X1283080Y1699260D01*
Y1696720D01*
Y1671320D02*
X1285620D01*
X1288160Y1673860D01*
X1290700Y1671320D01*
X1293240D01*
Y1673860D01*
X1290700Y1676400D01*
X1293240Y1678940D01*
Y1681480D01*
X1290700D01*
X1288160Y1678940D01*
X1285620Y1681480D01*
X1283080D01*
Y1678940D01*
X1285620Y1676400D01*
X1283080Y1673860D01*
Y1671320D01*
Y1645920D02*
X1285620D01*
X1288160Y1648460D01*
X1290700Y1645920D01*
X1293240D01*
Y1648460D01*
X1290700Y1651000D01*
X1293240Y1653540D01*
Y1656080D01*
X1290700D01*
X1288160Y1653540D01*
X1285620Y1656080D01*
X1283080D01*
Y1653540D01*
X1285620Y1651000D01*
X1283080Y1648460D01*
Y1645920D01*
Y1620520D02*
X1285620D01*
X1288160Y1623060D01*
X1290700Y1620520D01*
X1293240D01*
Y1623060D01*
X1290700Y1625600D01*
X1293240Y1628140D01*
Y1630680D01*
X1290700D01*
X1288160Y1628140D01*
X1285620Y1630680D01*
X1283080D01*
Y1628140D01*
X1285620Y1625600D01*
X1283080Y1623060D01*
Y1620520D01*
X1368680Y1696720D02*
X1371220D01*
X1373760Y1699260D01*
X1376300Y1696720D01*
X1378840D01*
Y1699260D01*
X1376300Y1701800D01*
X1378840Y1704340D01*
Y1706880D01*
X1376300D01*
X1373760Y1704340D01*
X1371220Y1706880D01*
X1368680D01*
Y1704340D01*
X1371220Y1701800D01*
X1368680Y1699260D01*
Y1696720D01*
Y1671320D02*
X1371220D01*
X1373760Y1673860D01*
X1376300Y1671320D01*
X1378840D01*
Y1673860D01*
X1376300Y1676400D01*
X1378840Y1678940D01*
Y1681480D01*
X1376300D01*
X1373760Y1678940D01*
X1371220Y1681480D01*
X1368680D01*
Y1678940D01*
X1371220Y1676400D01*
X1368680Y1673860D01*
Y1671320D01*
Y1645920D02*
X1371220D01*
X1373760Y1648460D01*
X1376300Y1645920D01*
X1378840D01*
Y1648460D01*
X1376300Y1651000D01*
X1378840Y1653540D01*
Y1656080D01*
X1376300D01*
X1373760Y1653540D01*
X1371220Y1656080D01*
X1368680D01*
Y1653540D01*
X1371220Y1651000D01*
X1368680Y1648460D01*
Y1645920D01*
Y1620520D02*
X1371220D01*
X1373760Y1623060D01*
X1376300Y1620520D01*
X1378840D01*
Y1623060D01*
X1376300Y1625600D01*
X1378840Y1628140D01*
Y1630680D01*
X1376300D01*
X1373760Y1628140D01*
X1371220Y1630680D01*
X1368680D01*
Y1628140D01*
X1371220Y1625600D01*
X1368680Y1623060D01*
Y1620520D01*
X1195070Y1348740D02*
X1189990Y1358900D01*
X1200150D01*
X1195070Y1348740D01*
Y1297940D02*
X1189990Y1308100D01*
X1200150D01*
X1195070Y1297940D01*
Y1450340D02*
X1189990Y1460500D01*
X1200150D01*
X1195070Y1450340D01*
Y1399540D02*
X1189990Y1409700D01*
X1200150D01*
X1195070Y1399540D01*
Y1755140D02*
X1189990Y1765300D01*
X1200150D01*
X1195070Y1755140D01*
Y1704340D02*
X1189990Y1714500D01*
X1200150D01*
X1195070Y1704340D01*
D41*
X1518920Y1703540D02*
G03*
X1518920Y1703540I-5080J0D01*
G01*
Y1603540D02*
G03*
X1518920Y1603540I-5080J0D01*
G01*
X1545590D02*
G03*
X1545590Y1603540I-5080J0D01*
G01*
Y1703540D02*
G03*
X1545590Y1703540I-5080J0D01*
G01*
X1767840Y1348740D02*
G03*
X1767840Y1348740I-5080J0D01*
G01*
Y1374140D02*
G03*
X1767840Y1374140I-5080J0D01*
G01*
X1712430Y1501140D02*
G03*
X1712430Y1501140I-5080J0D01*
G01*
X1612430D02*
G03*
X1612430Y1501140I-5080J0D01*
G01*
X1711160Y1526540D02*
G03*
X1711160Y1526540I-5080J0D01*
G01*
X1611160D02*
G03*
X1611160Y1526540I-5080J0D01*
G01*
X1701800Y1349540D02*
G03*
X1701800Y1349540I-5080J0D01*
G01*
Y1449540D02*
G03*
X1701800Y1449540I-5080J0D01*
G01*
X1552410Y1297940D02*
G03*
X1552410Y1297940I-5080J0D01*
G01*
X1452410D02*
G03*
X1452410Y1297940I-5080J0D01*
G01*
X1552410Y1323340D02*
G03*
X1552410Y1323340I-5080J0D01*
G01*
X1452410D02*
G03*
X1452410Y1323340I-5080J0D01*
G01*
X1552410Y1348740D02*
G03*
X1552410Y1348740I-5080J0D01*
G01*
X1452410D02*
G03*
X1452410Y1348740I-5080J0D01*
G01*
X1552410Y1374140D02*
G03*
X1552410Y1374140I-5080J0D01*
G01*
X1452410D02*
G03*
X1452410Y1374140I-5080J0D01*
G01*
X1552410Y1399540D02*
G03*
X1552410Y1399540I-5080J0D01*
G01*
X1452410D02*
G03*
X1452410Y1399540I-5080J0D01*
G01*
X1552410Y1424940D02*
G03*
X1552410Y1424940I-5080J0D01*
G01*
X1452410D02*
G03*
X1452410Y1424940I-5080J0D01*
G01*
X1552410Y1450340D02*
G03*
X1552410Y1450340I-5080J0D01*
G01*
X1452410D02*
G03*
X1452410Y1450340I-5080J0D01*
G01*
X1552410Y1475740D02*
G03*
X1552410Y1475740I-5080J0D01*
G01*
X1452410D02*
G03*
X1452410Y1475740I-5080J0D01*
G01*
D42*
X1765808Y1348740D02*
G03*
X1765808Y1348740I-3048J0D01*
G01*
Y1374140D02*
G03*
X1765808Y1374140I-3048J0D01*
G01*
M02*
