M48
;Layer_Color=9474304
;FILE_FORMAT=4:4
METRIC,LZ
;TYPE=PLATED
T01F00S00C0.6500
T02F00S00C0.8500
T03F00S00C0.9140
T04F00S00C1.0000
T05F00S00C1.1000
T06F00S00C1.4000
%
T01
X0176276Y0134874
Y0137414
T02
X0169672Y0134954
Y0144954
X0170735Y0150114
X0170608Y0152654
X0160608
X0160735Y0150114
X0154733Y0147574
Y0145034
Y0142494
Y0139954
Y0137414
Y0134874
Y0132334
Y0129794
X0144733
Y0132334
Y0134874
Y0137414
Y0139954
Y0142494
Y0145034
Y0147574
X0151384Y0160354
X0154051
Y0170354
X0151384
T03
X0172847Y0127254
Y0129794
Y0132334
Y0134874
Y0137414
Y0139954
Y0142494
Y0145034
Y0147574
Y0150114
Y0152654
Y0155194
Y0157734
X0157607
Y0155194
Y0152654
Y0150114
Y0147574
Y0145034
Y0142494
Y0139954
Y0137414
Y0134874
Y0132334
Y0129794
Y0127254
Y0160274
Y0162814
X0172847
Y0160274
T04
X0128943Y0129794
Y0132334
Y0134874
Y0137414
X0128816Y0140843
Y0143383
Y0145923
Y0148463
Y0151765
Y0154305
Y0156845
X0137376
Y0154305
Y0151765
Y0148463
Y0145923
Y0143383
Y0140843
X0137503Y0137414
Y0134874
Y0132334
Y0129794
X0137376Y0159385
Y016256
Y01651
Y016764
Y017018
X0128816
Y016764
Y01651
Y016256
Y0159385
T05
X0158877Y0170307
X0161417
X0163957
X0166497
X0169037
X0171577
T06
X013589Y0117221
X014097
X014605
X015113
X0119507Y0130302
Y0135382
Y0140462
Y0145542
Y0150622
Y0155702
Y0160782
Y0165862
Y0170942
Y0176022
X0169545Y0179324
X0174625
M30
